/* XPM */
static char *floor[] = {
/* columns rows colors chars-per-pixel */
"64 64 103 2 ",
"   c #3F3E25",
".  c #413F26",
"X  c #424026",
"o  c #4C4627",
"O  c #444228",
"+  c #4B4529",
"@  c #4F482B",
"#  c #544A27",
"$  c #544B2A",
"%  c #5A4E2C",
"&  c #5D512B",
"*  c #5B4E30",
"=  c #5F5130",
"-  c #63552B",
";  c #67582B",
":  c #6C5B2C",
">  c #725E2D",
",  c #635331",
"<  c #6A5733",
"1  c #6E5934",
"2  c #735B36",
"3  c #795E37",
"4  c #7B5F38",
"5  c #75602D",
"6  c #7C642E",
"7  c #7D6139",
"8  c #637E3C",
"9  c #80672E",
"0  c #846A2F",
"q  c #8B6E2F",
"w  c #856B30",
"e  c #8C6F30",
"r  c #83643B",
"t  c #88673C",
"y  c #8D693D",
"u  c #916C3F",
"i  c #8F7030",
"p  c #937331",
"a  c #997732",
"s  c #9D7932",
"d  c #A37D33",
"f  c #956E40",
"g  c #977042",
"h  c #9B7242",
"j  c #A27645",
"k  c #A67846",
"l  c #AA7A47",
"z  c #AD7D48",
"x  c #B27F49",
"c  c #67843F",
"v  c #69853F",
"b  c #6F883E",
"n  c #71873D",
"m  c #73893D",
"M  c #7D8C3B",
"N  c #678440",
"B  c #6B8540",
"V  c #738541",
"C  c #7B8542",
"Z  c #868D37",
"A  c #8B8F36",
"S  c #818E3A",
"D  c #8C9137",
"F  c #879039",
"G  c #8A9138",
"H  c #949436",
"J  c #9A9634",
"K  c #9D9834",
"L  c #909439",
"P  c #A9992F",
"I  c #B49E2D",
"U  c #B89F2D",
"Y  c #A78033",
"T  c #A39732",
"R  c #A49A33",
"E  c #AC9D31",
"W  c #B6A02F",
"Q  c #BBA22E",
"!  c #B4A030",
"~  c #C5A62C",
"^  c #C8A72B",
"/  c #CDA92B",
"(  c #D1AB2A",
")  c #838644",
"_  c #8B8645",
"`  c #8B8847",
"'  c #948646",
"]  c #998647",
"[  c #948548",
"{  c #9D8648",
"}  c #958848",
"|  c #9C8849",
" . c #A38649",
".. c #AC854A",
"X. c #A4884A",
"o. c #AB884B",
"O. c #B3844B",
"+. c #BB854D",
"@. c #B4884C",
"#. c #BC884E",
"$. c #C1874E",
"%. c #C3884F",
"&. c #C38950",
/* pixels */
": X - 5 o . . @ 2 x @.$.u % . . O > : . - 0 X # 9 # . . O , h @.+.l , X X . - 6 X # q # X 6 - X . X * r O.O.+.7 @ . . + 5 - X : ",
"9 o X X . . + g +.} C { $.j + X . O . O > i & . . . . . 3 +...C ) +.+., . X . X X - a - X X .   . * z @.) ) ..+.r . . . X X o 9 ",
"d > X X .   , +...v v V @.+.<   . . . & a d 0 X . . . o k +.C c N { %.y X . . . # p d a @ . X   O r %.[ 8 c ) $.z $   . X . > d ",
"9 o X X $ 7 z @.) v v N _ @.z r % . . O > i # . . O 2 j O.} v c v C o.O.u , X X X - p - X . X - y x ..V 8 c v ] O.h 2 + X X o 9 ",
"X X O O u $.} v c c c c v v { $.u X . . X o X . . 1 +.o.V N v N B v c _ $.z $ X X X o X . . @ z +.) v c 8 N v v C o.+.2   . . X ",
"X X . = x +.V c c v H M c c C +.+., . O . . . . @ d $._ N N N F F c c v ..$.r O . . X X . . r $.X.N v N M L v v c ' $.j $ . X X ",
"O $ y .. .) v v v J / Q M c B _  .O.u % . X O 7 k ..[ B v v G ^ ^ G c c C ] @.j < . X X < j O.[ C c c m U / J v c B ' ..z 7 + O ",
"  7 %.{ v N v v v J / Q M c c v v ..%.t . . % +.O.V N N N N G ^ ~ Z c c v c _ $.k + . X k $.) c c c N M U / K v c B N C @.+.-   ",
", z #.) c v v S v b E F c m M c c ) +.z , % u $.} v v v M m v J J N m M v c V @.+.r $ 7 x O.B N N M M 8 Z E v v S c v v { $.h % ",
"+...) N c v J / R D ~ E F Q Q M v N C  .x +.+.` v v v D ~ E F Q Q F E ~ D v c V ' O.O.+.{ V B B M Q Q Z E ~ H K ^ K v c B ) ..+.",
"O...n N c m Q ( W E / ^ E / / H N N B ] l l O.C v v v R ( ~ R / ^ E ^ ( R v c c ) O.l O.' c c c L / / T U ( P Q ( U m v c V ..x ",
"% k ` c v c M E M m E L v J J b c c ) z % + y ..v v v m R F v K R b D R m c c V ..2 + 2 z n c v v K K c A P n S E M v c c  .u @ ",
". 7 @._ V c c v c M Q J v B B N B ) ..r . . % O.} C c c v v m ! E m v v v v C  .k + . O j  .C v v v v v J U M c v c B n ' ..= . ",
". @ 7 k X.B v c v E ( / F N c N ] z r $ X X X 1 h ..C c v v J / ( H v v v ) ..u , . O . % u x _ v v N Z ~ ( E v c c V ..h 2 . . ",
". .   $ z ) c c c M Q K v c c C ..%   X X . X . O u ] v N N m E E m N N B X.7 X . . . . . X 3 ..V v v B J U M c c v } g + . . . ",
"$ . X X t @.} n c v m v v N ' o.y X X X + % X X . < O. .C B v v b N v )  .l $   . O % O . O @ l X._ N N c m c c C  .O.2 . . . $ ",
"i $ X X o < j  .N v N N N [ k 2 @   X o 9 a - X X X - u ..V N c N N ) z 9 % X . O > d > . . . % 7 ..) c N B N V ..f , O X X $ p ",
"d : . X .   & O.) N v c V ..,   . . . % a d 6 X X X . + j _ B B v N { y . . .   o q d p o . . . X r ..V 8 N c ) k @ X X X X : d ",
"> X X o X O O f x  .n C ..f + X . o O X ; 0 o X o X X . 1 x ..C V  .l - . . o o . % q # . o o . . % j o.) B [ O.7 . . . @ X X 5 ",
"6 $ 5 p $ . . O % j  ...7 +   . o 0 0 # > i % ; p - X X . $ t .. .g % . . X 5 i % - p ; # p > X . . @ 2 z | z , O   . % i 5 $ 6 ",
"d 0 d d 9 X X X   1 +.j + . . . : Y Y 0 a d e p d p # . . . @ x +.-   . X & s Y q p d p q d d & . . . X f +.r   X X O 9 d a 0 Y ",
"9 # > p % X X X + u +..., X . . o 0 0 @ 5 i $ - p ; . X + . 2 O.+.r O X X X 5 i % - p ; % i > O . . . % k @.h @ X X X # e 5 # 6 ",
"> X O o . . X 3 k ..C ' O.r + . X O O X ; 0 o X @ X . . % g .._ ) O.g $ X X X o . % q # . o o . . @ y z [ C ..z ; X X   o O O 5 ",
"d : . . . . $ O...V c B O.+.% X X O . & a Y 6 O . . . X g $.) c N ] &.7 . X X . o i d p o . . . . 2 $.[ 8 8 C &.j O X X X   : d ",
"p % . . X $ y ..C v v v C o.u $ O X X o 9 a - + . . @ 2 ..` v c c V { k , + . . O > d > o . . O = k  .v 8 c v ` O.2 + . . . % p ",
"o . X . 3 z ..C c c N N N B X.O.7 X X   . % . . . * k O._ c v v c N v } O.f @ . . O & . . . o u x ] v c 8 c c v ) @.l - . . . @ ",
". . . o l @.V v v v M m v c C @.l @   X .   . . . t $.) c v c M M N c v  .+.<   . . . . . . , +. .v v c n S B v c ` $.t . . . . ",
". . - u o.C v v v G ~ E m v v V  .f - O . . . $ 7 z _ B v c M Q Q M c c v } k 2 $ O . . @ 1 k { B v v n P ~ D v c c _ ..r % X X ",
". 2 +...V c N v v R ( ~ F v v v V ..+.2 X   $ z @.) v c c c L / ( L N N c v ] $.f . . . u $.} v v N c S U ( R v c c c ) +.x %   ",
"+ g @.C c v B m v m E L v b b v c C @.j +   3 +.' N v c m b v R T b v V c c V  .O.% . = O.X.v v c n v N A E n c m v N c ' @.3 . ",
"j ..C N c v G Q D M W K m E E m v v V  .h f z _ v c c M W K m E E m K W S v c v ' k y k { v v N V E E M J I M D Q D c c B ) x f ",
"x ..V N N m Q ( Q ! ( / E / ( J c c N  .z z @.C c v v E ( ^ E ( ( E ~ ( E v c c _ +.l +.' c v N J ^ / E ~ / W ~ ( Q m c c C @.z ",
"* k _ 8 c c D Q D M Q T M E E n N N ) k % + y  .N v N M W R m E E M J W M c c m ..2 @ 1 ..C c c m E E M J Q M D Q D v c N  .u @ ",
". 4 @._ v c c n c m E L N v n B B ) O.r . . % O.} C N c m v v R T v v b c c C  .j O   X h  .) c c n B N H P m c m v v n } O.-   ",
". + 4 l  .n c c v R ( ~ S N c c [ z t $ . . O 1 g @.V c N N H / / H N v c ) ..u - X X X - y x ` c N N S Q ( R v v c V ..h 2 O X ",
". . . % z ) c c v D ~ E m c B C z * . . . . . . O u { v v v M W Q M v v v ..3 X   X X X . . 2 o.V c c V E ~ G c c v } h +   X . ",
". . . . y O.] n v N F b c B [ o.y . . . . . O . . < O. .C B B M M c v ) o.l $   X X X X X X @ j o.) B N b M c c C { O.2   X . X ",
"> + . . @ < j  .v v c N c ' j 2 @ . . O - 9 @ . . O - u o.V N N N c C O.r % X X X $ 9 %   X X % 4 ..) c 8 c v b ..u , X X X X : ",
"d : . . X . = @.) c c c V .., . X X . % p d 6 + . . . + k [ B 8 c B  .r . . X . o p Y i o X X   . r ..V c c c ` k @   X X X : d ",
"i % . . . . O y O.{ V C @.g + . . . . @ 9 a ; . . . . . 1 z o.C V  .z , . X X . O 5 s 5 O X X X . % k ..f N } @.7 X X X X X $ p ",
": . # : X X X O % j ....3 + . X X - - X & 6 O @ > o . . O $ t o. .f $ . . . % : X # 0 # X : # X . . @ 2 z { l < X X X O : # X : ",
"a > p d > X X X . 1 +.k + . . . - s a > i d 6 9 d 9 O . . . $ x +., . X . $ p d 6 9 d 9 5 d p # . . . . f $.r . X X X 5 d p > a ",
"a > i d > X X . + y $.O., X . . - a a > i d 6 9 d 0 o X . . 2 +.$.r O . . # p d 6 0 d 0 6 d p $ . . . * z $.h @ X X X 5 d p > a ",
": . % ; O X X 3 k ..{ +.x r + . . & - X & 9 X o > @ . . - h x  .o.+.g $ . . $ : X o 0 # X : # . . @ t z  .{ +.k , X X O : #   : ",
"i % . . X . $ x +.C c C +.+.% . X   X @ 9 a - X X . . X h %._ c B o.%.4 . . . . X 5 s 5 X X X X . 2 %. .c c ] $.j O X X     % i ",
"d : . . X % y $.{ v c c  .+.u $ X X   & a d 6 X . . @ 2 +.@.V c B _ +.k , + . . o p Y i o X X O = l +._ c c m +.+.2 + X X X : d ",
": . . . 3 x @._ V v v c V _ o.O.7 X X X - 6 o X . % k +.} m v c c B ) ..O.g @ . X # 9 # X X o u +. .) B c c v C ] +.l - X X O : ",
". . . + k $.M c v N v v c c _ $.z @ X X X X X X . t $.{ c c c v c c c V O.$.<   . X o X X X , +.z B N N c v c c v { %.y X   O O ",
"O O - f +. .v c v m R D v v B X.#.u , + X   . % 4 x @.V c c b J J b v v } #.k 2 @ . . O @ 2 k #.` B N N A R n v v ) @.O.r % . . ",
". 1 +.O.) B c v v R ( ^ F N N B ) @.+.2 X   $ z +.[ V B v c L / / L c c v C  .$.f O . . y +.{ V N N B M ~ / R v c c V ' +.z $ . ",
"+ g $._ c c v v c D ^ E m N v v v } &.h +   2 $. .N N N v c M Q Q M c v v c C #.+.% . % x +.V v N N N V E ~ D N c v c B ..$.r . ",
"h x { V v c m H m v R G c G G v N V  .@.g f O.o.) c v v H M c H J v S L v c v } O.l y l @.' v v N G Z N Z E v n H m c c ) ..O.u ",
"%. .c c v n E / ! K ^ Q J ^ ^ F v c v ' +.%.@.C v v v K / Q J ^ ~ J W / K v v c C #.%.$._ c c N G ^ ^ H W / R E ( E v N v n ..%.",
"y O.) B v v E ( ! R ^ Q J ^ ^ G v N C ..r 2 z ] c v v K ( Q J ^ ~ J Q / K v c B  .h 2 h ..n N c G ^ ~ H Q / T E ( E n B c ` z 7 ",
". f  .B v v m H b v E F N G F N N N } h O X < O.C c c v L M c K J c M H v v N ) x $ . $ l _ c c N G G N Z E B n H m c 8 V @.2   ",
". , z O._ v c c v G ~ E m v N N ) ..z < X X @ h @.} v v v v M Q Q M c c N V X.O.t X . X r O. .C N c N m E ~ G c v N c ' @.h $ . ",
". O $ 7 O.C N N v R ( ~ M v v b ..r $ X . . X @ 1 l ` c v c H / / L v v v { h % X X X X X % g  .v c c M ^ ( R v v c _ z < @ . . ",
"X . . X j { C N v m R G v v V } j +   X   X O .   7 ..) B c v J J b v v ) @.- . X X X X X   % O.` V c c A R m v N C o.r . X X . ",
"& X X . < j O._ v v v v c ) o.j 1 X X X $ ; X . . $ u O.{ B N c v c m  .z r + . X o > o X X X r l ..V c c v v N ] @.g % X X X & ",
"a - X X X X 4 o.B v v v v  .r o X X   # q d > X . . X , x ) N B c c ' j $ . . . o 9 Y 0 o   X X @ g ] 8 c c v C O., X X X X - a ",
"s - . . X   @ z  .) v B } z $ X X . . $ q d 5 X . X X X f ..` B v ) @.3 . . . . o 9 s 9 o . . .   2 O.' v c C  .u X X X   X - a ",
": . o % X X X ; u O._ { k 2 X X . $ # . - 9 O O & X . X % r l ] _ x r @ . . + % X # 0 #   % @ . . O 2 h ..) ..g - X X X % o   : ",
"i & 0 a ; X X X X r +.z %   X X # p p - 9 a - 5 d > O X . . , O.O.3 . . . o 0 s ; 5 s 5 - s 0 o . . . @ j #.g X . X X - s 9 & i ",
"d q s Y 9 X X X   2 +.k +   X X > s d 0 a d q a d a o . . . $ x +.- . . . % d d i p Y p i d d & . . . + f $.7   X X O 9 Y s q d "
};
