/* XPM */
static char *portal_redimension[] = {
/* columns rows colors chars-per-pixel */
"64 64 74 1 ",
"  c #04090C",
". c #0B0A0B",
"X c #130B0D",
"o c #1B0B0E",
"O c #0C0F14",
"+ c #140E13",
"@ c #1B0E12",
"# c #061015",
"$ c #0A1015",
"% c #141113",
"& c #1B1213",
"* c #191719",
"= c #1E1818",
"- c #230C0E",
"; c #2A0D0F",
": c #330B0F",
"> c #3B0A0E",
", c #230D11",
"< c #2C0C10",
"1 c #320D10",
"2 c #3A0E10",
"3 c #251215",
"4 c #2B1013",
"5 c #261817",
"6 c #231B1B",
"7 c #2C1D1D",
"8 c #331214",
"9 c #3A1415",
"0 c #321E1E",
"q c #3A1F1F",
"w c #201F21",
"e c #242123",
"r c #2B2222",
"t c #332323",
"y c #392626",
"u c #342728",
"i c #332A2A",
"p c #3C2C2C",
"a c #3F3434",
"s c #44090D",
"d c #4C090C",
"f c #56070A",
"g c #5C070A",
"h c #51080C",
"j c #420F11",
"k c #540F11",
"l c #5C0F10",
"z c #441012",
"x c #4C1113",
"c c #531213",
"v c #5C1415",
"b c #6D0507",
"n c #630608",
"m c #690608",
"M c #650D0F",
"N c #6B0D0E",
"B c #740406",
"V c #7B0405",
"C c #720C0D",
"Z c #7D0D0E",
"A c #610E10",
"S c #641717",
"D c #631718",
"F c #6D1919",
"G c #402B2B",
"H c #413434",
"J c #483636",
"K c #443A3A",
"L c #840304",
"P c #8C0203",
"I c #840D0E",
"U c #8A0C0D",
"Y c #900102",
"T c None",
/* pixels */
"TTTTTTTTTTKKapHppaKHpppHppHJKppappaKKpapappaHKppaayaTTTTTTTTTTTT",
"TTTTTTTTTTaHytypqpaHtqpi0yaaHyypyypaHypyppyaHHpppptpTTTTTTTTTTTT",
"TTTTTTTTTTTapuppiaaapippyipaapippiaaayyppiipaapippypTTTTTTTTTTTT",
"TTTTTTTTTTTrrrrrrrerrrrrrrrrrrrerr7rrerr7rrrrr77rrrrTTTTTTTTTTTT",
"TTTTTTTTTTTKaKaKKHaKaKaKHaKaKaaaaaKKKaKayriaaKHHaKaKTTTTTTTTTTTT",
"TTTTTTTTTTKKKKiuiKKKKKKKKKaiw#$$#$wiaKKKHrrHKaaiiKKKTTTTTTTTTTTT",
"TTTTTTTTTTKKar==6rKKKKKKae$         OeaKHrraKr6=6rKKTTTTTTTTTTTT",
"TTTTTTTTTTKKi66r6=iKKKKi* ..  . . ....*pKirKi=676=iKTTTTTTTTTTTT",
"TTTTTTTTTTKK66t0&%6aKKiXX..X.XXX.XXXXXXXipia6=7006wKTTTTTTTTTTTT",
"TTTTTTTTTTKH670&..5aKi&XXXoXXoXooooXoooo3uaa6%.&0r6aTTTTTTTTTTTT",
"TTTTTTTTTTKKi70X..rKaooooooo,o,o-oo-o----3pKiX. 56iKTTTTTTTTTTTT",
"TTTTTTTTTTKKar75&eHH7----<,-<<,<;;;;;;3;;;0KHeX%6rKKTTTTTTTTTTTT",
"TTTTTTTTTTKKKKaiaHKt;;;<<<<<,,++%-;;1111;::yKHiipKKKTTTTTTTTTTTT",
"TTTTTTTTTTaKKKKKKKH011<1:<-+$######X38222>29JKKKKKKKTTTTTTTTTTTT",
"TTTTTTTTTTTaaaaaaap222221+O#########$&222j2jGaaaaaKaTTTTTTTTTTTT",
"TTTTTTTTTTTrrrrerr8j29z<O###$#########$1xzzx9rrrrrerTTTTTTTTTTTT",
"TTTTTTTTTTTKHHKaaHqzzs8$##$#$######$$##O1xxkxHHKKaKHTTTTTTTTTTTT",
"TTTTTTTTTTKKKKKKKKxxkz%$$$#$#$$$$$$$#$$#%xvccJKKKKKKTTTTTTTTTTTT",
"TTTTTTTTTTKKKKKKKJccc3$$$$$$$$$$$$$$$$#$$3vlvKKKKKKKTTTTTTTTTTTT",
"TTTTTTTTTTKKKKKKKJvvz$$$$$$O$$OO$$$$O$OO$OxSDKKKKKKKTTTTTTTTTTTT",
"TTTTTTTTTTaKKKKKKJvv3OOOOOOOOOOOOOOOOOO$OO4SDJKKKKKaTTTTTTTTTTTT",
"TTTTTTTTTT=uaKKKKJvv&+O+O++++++++++++++++O@SvHKKKKKaTTTTTTTTTTTT",
"TTTTTTTTTTiiaKKKKJvx@+++++++++++++++++++++@cDJKKKKKpTTTTTTTTTTTT",
"TTTTTTTTTTaKKKKaKJDj++@+@++@++++@+++++@++@+jDJKKKKKKTTTTTTTTTTTT",
"TTTTTTTTTTTiiuiiiuDz@@@@@@@@@@@@@@@@@@@@@@@jStiiiiiiTTTTTTTTTTTT",
"TTTTTTTTTTTiurruruSz@@@@@@@@,@@@@@@@@@@@@@@xSyiiiiiiTTTTTTTTTTTT",
"TTTTTTTTTTTKuuiitHSx@,@,,,,@,@@,,@,,@,,@@,@xSJaHaaaKTTTTTTTTTTTT",
"TTTTTTTTTTKayyaJ0HSx,,,,,-,-,,,,,,,,,,,,,,-xSHriiiiKTTTTTTTTTTTT",
"TTTTTTTTTTKaiaHptHSx,<,<,,,,<,<,,,,<<,<,;<,xSGtaaaiaTTTTTTTTTTTT",
"TTTTTTTTTTKaiaKGtGSx<<,<<<<<<<,<<<<<<,<<;;;xSH0aaaiaTTTTTTTTTTTT",
"TTTTTTTTTTKaipHptGDx<<<<<<<<<<<<<<<<<<<<;;;xSHqpHaiaTTTTTTTTTTTT",
"TTTTTTTTTTKKiaKptaSk<<<1<<:<<<<:1<1<<<<<;:;kSHtpHaiaTTTTTTTTTTTT",
"TTTTTTTTTTKauaJptGSk::<:::;:::::11111111::<kDGtpKpuHTTTTTTTTTTTT",
"TTTTTTTTTTKauaHGtHSk:::::::::::::::::::::::kDHtpHHiHTTTTTTTTTTTT",
"TTTTTTTTTTKHiaHp0HSk:>:>>::>:>>::>>:>::>:>>kDGtGHaiaTTTTTTTTTTTT",
"TTTTTTTTTTKaupaa0HDk>>>>>>>>>>>>>>>>>>>>>>>cDHtpHaiaTTTTTTTTTTTT",
"TTTTTTTTTTKKuHHGtHSl>>s>>>>s2>s>>>>s>>>>>s>lDGtGapuKTTTTTTTTTTTT",
"TTTTTTTTTTKayHHp0HSl>sssss>ssss>ssssssss>sskDHtpHKiHTTTTTTTTTTTT",
"TTTTTTTTTTKawyHp0pSlssssssssssssssssssssssslDHtpHptHTTTTTTTTTTTT",
"TTTTTTTTTTKatpKGtHSlsdssdsdsssdssssdssssdsdlDGtGHywHTTTTTTTTTTTT",
"TTTTTTTTTTKaiKHptHSAdddddddddddddsdddddddddlDH0pKHiaTTTTTTTTTTTT",
"TTTTTTTTTTKKuaaG0HSAdddddddddddddhhddddddddASHtpaHiaTTTTTTTTTTTT",
"TTTTTTTTTTKaiapp0GSAhhhhhhhhdhhhhhhhdhhhhhhASGtGaaiHTTTTTTTTTTTT",
"TTTTTTTTTTKaiaaptHSAhhhhhfhhfhhfhhhhffffhhfASHtppaiaTTTTTTTTTTTT",
"TTTTTTTTTTKauaJptGSAfffffffffhffffffffffhffADHtGHauHTTTTTTTTTTTT",
"TTTTTTTTTTKKuaHatHSAgfgggggfggggfgfgfgffggfNSHtpHauaTTTTTTTTTTTT",
"TTTTTTTTTTKauaHptGSNggggggggggggnfggnggggggASGqpHauaTTTTTTTTTTTT",
"TTTTTTTTTTKHupHptJSMnggnnggngggngnngnggngngNSHtpHaiaTTTTTTTTTTTT",
"TTTTTTTTTTKaaKaH0HSNngnnnnnnnnnnnnnnnnnnnnnNSGtHaHiHTTTTTTTTTTTT",
"TTTTTTTTTTKaeiiitaSNmnmnnnnnnnnnnnnnnnnnnnnNSHriuiiKTTTTTTTTTTTT",
"TTTTTTTTTTTKHHKHHJSCmnnnnmnmnmmmmmmmmmmmmmmNSJHaaaHKTTTTTTTTTTTT",
"TTTTTTTTTTTKiiiiyHDNbbbbbbmbbbmmmmmbmmmmbmmCDHiyiiiKTTTTTTTTTTTT",
"TTTTTTTTTTKHtqqq0HDCbbbbbbbbbbbbBbbbmbbbbbbNSH7qtqtaTTTTTTTTTTTT",
"TTTTTTTTTTKaiHpHtGDCBBBBBBBBBBBBBbBBBBBBBBBCSHtHpJiHTTTTTTTTTTTT",
"TTTTTTTTTTKaia0HtHSCBBBBBBBBBBBBBBBBBBBBBBBCSGqH0aiaTTTTTTTTTTTT",
"TTTTTTTTTTKHiy5atGFZBBVBBVBVBBVBVBVBVBVBVBVZSatp5yiaTTTTTTTTTTTT",
"TTTTTTTTTTKait6ytaFIVVVVVVVVVVVVVVVVVVVVVVVIFa0y5yiaTTTTTTTTTTTT",
"TTTTTTTTTTKau7-0tGFIVVVVVLVVVVVVVVVVVLVVVVVIFG07;7rKTTTTTTTTTTTT",
"TTTTTTTTTTKa00-50aFILVLLLVLVLLVLLLLVLVLLLLVIFH07-7rHTTTTTTTTTTTT",
"TTTTTTTTTTKKiy5y0aFULLLLLLLLLLLLLLLLLLLLLLLIFH0p6qiaTTTTTTTTTTTT",
"TTTTTTTTTTKKip7HtHFULPPLLLLPLLPPLPPLLLLPLLPUFGtH7piaTTTTTTTTTTTT",
"TTTTTTTTTTKapayH0HFUPLPLPPPPPPPLPLPPPPLPPPPUFHtHyaiaTTTTTTTTTTTT",
"TTTTTTTTTTKaiiiirHFUPYPYPPPPPPYPPPPPYPPPPPYUFHuiiiiaTTTTTTTTTTTT",
"TTTTTTTTTTKKaaaaHJFUYYYYYYPPYYYYPPYYYYYPYYYUFHKaaaaKTTTTTTTTTTTT"
};
