/* XPM */
static char *star[] = {
/* columns rows colors chars-per-pixel */
"416 32 6 1 ",
"  c #42252F",
". c #C76904",
"X c #F0DD11",
"o c #F0ED67",
"O c white",
"+ c None",
/* pixels */
"++++++++++++++++++++++++++++++++++++++++++++++++++++++++++++++++++++++++++++++++++++++++++++++++++++++++++++++++++++++++++++++++++++++++++++++++++++++++++++++++++++++++++++++++++++++++++++++++++++++++++++++++++++++++++++++++++++++++++++++++++++++++++++++++++++++++++++++++++++++++++++++++++++++++++++++++++++++++++++++++++++++++++++++++++++++++++++++++++++++++++++++++++++++++++++++++++++++++++++++++++++++++++++++++",
"++++++++++++++++++++++++++++++++++++++++++++++++++++++++++++++++++++++++++++++++++++++++++++++++++++++++++++++++++++++++++++++++++++++++++++++++++++++++++++++++++++++++++++++++++++++++++++++++++++++++++++++++++++++++++++++++++++++++++++++++++++++++++++++++++++++++++++++++++++++++++++++++++++++++++++++++++++++++++++++++++++++++++++++++++++++++++++++++++++++++++++++++++++++++++++++++++++++++++++++++++++++++++++++++",
"++++++++++++++++++++++++++++++++++++++++++++++++++++++++++++++++++++++++++++++++++++++++++++++++++++++++++++++++++++++++++++++++++++++++++++++++++++++++++++++++++++++++++++++++++++++++++++++++++++++++++++++++++++++++++++++++++++++++++++++++++++++++++++++++++++++++++++++++++++++++++++++++++++++++++++++++++++++++++++++++++++++++++++++++++++++++++++++++++++++++++++++++++++++++++++++++++++++++++++++++++++++++++++++++",
"++++++++++++++++++++++++++++++++++++++++++++++++++++++++++++++++++++++++++++++++++++++++++++++++++++++ +++++++++++++++++++++++++++++++++++++++++++++++++++++++++++++++++++++++++++++++++++++++++++++++++++++++++++++++++++++++++++++++++++++++++++++++++++++++++++++++++++++++++++++++++++++++++++++++++++++++++++++++++++++++++++++++++++++++++++++++++++++++++++++++++++++++++++++++++++++++++++++++++++++++++++++++++++++++++",
"++++++++++++++++++++++++++++++++++++++++++++++++++++++++++++++++++++++ ++++++++++++++++++++++++++++++ O ++++++++++++++++++++++++++++++++++++++++++++++++++++++++++++++++++++++++++++++++++++++++++++++++++++++++++++++++++++++++++++++++++++++++++++++++++++++++++++++++++++++++++++++++++++++++++++++++++++++++++++++++++++++++++++++++++++++++++++++++++++++++++++++++++++++++++++++++++++++++++++++++++++++++++++++++++++++++",
"++++++++++++++++++++++++++++++++++++++ ++++++++++++++++++++++++++++++ O +++++++++++++++++++++++++++++ O ++++++++++++++++++++++++++++++++++++++++++++++++++++++++++++++++++++++++++++++++++++++++++++++++++++++++++++++++++++++++++++++++++++++++++++++++++++++++++++++++++++++++++++++++++++++++++++++++++++++++++++++++++++++++++++++++++++++++++++++++++++++++++++++++++++++++++++++++++++++++++++++++++++++++++++++++++++++++",
"+++++++++++++++  ++++++++++++++++++++ O +++++++  ++++++++++++++++++++ O +++++++  +++++++++++++++++++ OOO ++++++  ++++++++++++++++++++++++++++++  ++++++++++++++++++++++++++++++  ++++++++++++++++++++++++++++++  ++++++++++++++++++++++++++++++  ++++++++++++++++++++++++++++++  ++++++++++++++++++++++++++++++  ++++++++++++++++++++++++++++++  ++++++++++++++++++++++++++++++  ++++++++++++++++++++++++++++++  +++++++++++++++",
"++++++++++++++ XX ++++++++++++++++++++ +++++++ XX +++++++++++++++++++ O ++++++ XX +++++++++++++++++++ O ++++++ XX ++++++++++++++++++++++++++++ oo ++++++++++++++++++++++++++++ XX ++++++++++++++++++++++++++++ XX ++++++++++++++++++++++++++++ XX ++++++++++++++++++++++++++++ XX ++++++++++++++++++++++++++++ XX ++++++++++++++++++++++++++++ XX ++++++++++++++++++++++++++++ XX ++++++++++++++++++++++++++++ XX ++++++++++++++",
"++++++++++++++ XX ++++++++++++++++++++++++++++ XX ++++++++++++++++++++ +++++++ XX +++++++++++++++++++ O ++++++ XX ++++++++++++++++++++++++++++ oX ++++++++++++++++++++++++++++ Xo ++++++++++++++++++++++++++++ XX ++++++++++++++++++++++++++++ XX ++++++++++++++++++++++++++++ XX ++++++++++++++++++++++++++++ XX ++++++++++++++++++++++++++++ XX ++++++++++++++++++++++++++++ XX ++++++++++++++++++++++++++++ XX ++++++++++++++",
"+++++++++++++ XXXX ++++++++++++++++++++++++++ XXXX ++++++++++++++++++++++++++ XXXX +++++++++++++++++++ ++++++ XXXX ++++++++++++++++++++++++++ oXXX ++++++++++++++++++++++++++ Xooo ++++++++++++++++++++++++++ XXXX ++++++++++++++++++++++++++ XXXX ++++++++++++++++++++++++++ XXXX ++++++++++++++++++++++++++ XXXX ++++++++++++++++++++++++++ XXXX ++++++++++++++++++++++++++ XXXX ++++++++++++++++++++++++++ XXXX +++++++++++++",
"+++++++++++++ XXXX ++++++++++++++++++++++++++ XXXX ++++++++++++++++++++++++++ XXXX ++++++++++++++++++++++++++ XXXX ++++++++++++++++++++++++++ XXXX ++++++++++++++++++++++++++ oooX ++++++++++++++++++++++++++ XXXX ++++++++++++++++++++++++++ XXXX ++++++++++++++++++++++++++ XXXX ++++++++++++++++++++++++++ XXXX ++++++++++++++++++++++++++ XXXX ++++++++++++++++++++++++++ XXXX ++++++++++++++++++++++++++ XXXX +++++++++++++",
"++++++++++++ XXXXXX ++++++++++++++++++++++++ XXXXXX ++++++++++++++++++++++++ XXXXXX ++++++++++++++++++++++++ XXXXXX ++++++++++++++++++++++++ XXXXXX ++++++++++++++++++++++++ oooXXX ++++++++++++++++++++++++ XXXXXo ++++++++++++++++++++++++ XXXXXX ++++++++++++++++++++++++ XXXXXX ++++++++++++++++++++++++ XXXXXX ++++++++++++++++++++++++ XXXXXX ++++++++++++++++++++++++ XXXXXX ++++++++++++++++++++++++ XXXXXX ++++++++++++",
"++++++       XXXXXX       ++++++++++++       XXXXXX       ++++++++++++       XXXXXX       ++++++++++++       XXXXXX       ++++++++++++       XXXXXX       ++++++++++++       ooXXXX       ++++++++++++       XXXXoo       ++++++++++++       XXXXXX       ++++++++++++       XXXXXX       ++++++++++++       XXXXXX       ++++++++++++       XXXXXX       ++++++++++++       XXXXXX       ++++++++++++       XXXXXX       ++++++",
"++++++ XXXXXXXXXXXXXXXXXX ++++++++++++ XXXXXXXXXXXXXXXXXX ++++++++++++ XXXXXXXXXXXXXXXXXX ++++++++++++ XXXXXXXXXXXXXXXXXX ++++++++++++ ooXXXXXXXXXXXXXXXX ++++++++++++ XXXXoooXXXXXXXXXXX ++++++++++++ XXXXXXXXXoooXXXXXX ++++++++++++ XXXXXXXXXXXoooXXXX ++++++++++++ XXXXXXXXXXXXXXXooo ++++++++++++ XXXXXXXXXXXXXXXXXX ++++++++++++ XXXXXXXXXXXXXXXXXX ++++++++++++ XXXXXXXXXXXXXXXXXX ++++++++++++ XXXXXXXXXXXXXXXXXX ++++++",
"++++++ OXXXXXXXXXXXXXXXXO ++++++++++++ OXXXXXXXXXXXXXXXXO ++++++++++++ OXXXXXXXXXXXXXXXXO ++++++++++++ OXXXXXXXXXXXXXXXXO ++++++++++++ OoXXXXXXXXXXXXXXXO ++++++++++++ OXXoooXXXXXXXXXXXO ++++++++++++ OXXXXXXXoooXXXXXXO ++++++++++++ OXXXXXXXXXoooXXXXO ++++++++++++ OXXXXXXXXXXXXXoooO ++++++++++++ OXXXXXXXXXXXXXXXXO ++++++++++++ OXXXXXXXXXXXXXXXXO ++++++++++++ OXXXXXXXXXXXXXXXXO ++++++++++++ OXXXXXXXXXXXXXXXXO ++++++",
"++++++ .OXXXXXXXXXXXXXXO. ++++++++++++ .OXXXXXXXXXXXXXXO. ++++++++++++ .OXXXXXXXXXXXXXXO. ++++++++++++ .OXXXXXXXXXXXXXXO. ++++++++++++ .OXXXXXXXXXXXXXXO. ++++++++++++ .OoooXXXXXXXXXXXO. ++++++++++++ .OXXXXXoooXXXXXXO. ++++++++++++ .OXXXXXXXoooXXXXO. ++++++++++++ .OXXXXXXXXXXXoooO. ++++++++++++ .OXXXXXXXXXXXXXXO. ++++++++++++ .OXXXXXXXXXXXXXXO. ++++++++++++ .OXXXXXXXXXXXXXXO. ++++++++++++ .OXXXXXXXXXXXXXXO. ++++++",
"++++++ ..OXXXXXXXXXXXXO.. ++++++++++++ ..OXXXXXXXXXXXXO.. ++++++++++++ ..OXXXXXXXXXXXXO.. ++++++++++++ ..OXXXXXXXXXXXXO.. ++++++++++++ ..OXXXXXXXXXXXXO.. ++++++++++++ ..OoXXXXXXXXXXXO.. ++++++++++++ ..OXXXoooXXXXXXO.. ++++++++++++ ..OXXXXXoooXXXXO.. ++++++++++++ ..OXXXXXXXXXoooO.. ++++++++++++ ..OXXXXXXXXXXXXO.. ++++++++++++ ..OXXXXXXXXXXXXO.. ++++++++++++ ..OXXXXXXXXXXXXO.. ++++++++++++ ..OXXXXXXXXXXXXO.. ++++++",
"+++++++ ..OXXXXXXXXXXO.. ++++++++++++++ ..OXXXXXXXXXXO.. ++++++++++++++ ..OXXXXXXXXXXO.. ++++++++++++++ ..OXXXXXXXXXXO.. ++++++++++++++ ..OXXXXXXXXXXO.. ++++++++++++++ ..OXXXXXXXXXXO.. ++++++++++++++ ..OXoooXXXXXXO.. ++++++++++++++ ..OXXXoooXXXXO.. ++++++++++++++ ..OXXXXXXXoooO.. ++++++++++++++ ..OXXXXXXXXXXO.. ++++++++++++++ ..OXXXXXXXXXXO.. ++++++++++++++ ..OXXXXXXXXXXO.. ++++++++++++++ ..OXXXXXXXXXXO.. +++++++",
"++++++++ ..XXXXXXXXXX.. ++++++++++++++++ ..XXXXXXXXXX.. ++++++++++++++++ ..XXXXXXXXXX.. ++++++++++++++++ ..XXXXXXXXXX.. ++++++++++++++++ ..XXXXXXXXXX.. ++++++++++++++++ ..XXXXXXXXXX.. ++++++++++++++++ ..oooXXXXXXX.. ++++++++++++++++ ..XXoooXXXXX.. ++++++++++++++++ ..XXXXXXoooX.. ++++++++++++++++ ..XXXXXXXXXX.. ++++++++++++++++ ..XXXXXXXXXX.. ++++++++++++++++ ..XXXXXXXXXX.. ++++++++++++++++ ..XXXXXXXXXX.. ++++++++",
"+++++++++ .XXXXXXXXXX. ++++++++++++++++++ .XXXXXXXXXX. ++++++++++++++++++ .XXXXXXXXXX. ++++++++++++++++++ .XXXXXXXXXX. ++++++++++++++++++ .XXXXXXXXXX. ++++++++++++++++++ .XXXXXXXXXX. ++++++++++++++++++ .ooXXXXXXXX. ++++++++++++++++++ .XoooXXXXXX. ++++++++++++++++++ .XXXXXoooXX. ++++++++++++++++++ .XXXXXXXXXX. ++++++++++++++++++ .XXXXXXXXXX. ++++++++++++++++++ .XXXXXXXXXX. ++++++++++++++++++ .XXXXXXXXXX. ++++++ ++",
"++++++++++ XXXXXXXXXX ++++++++++++++++++++ XXXXXXXXXX ++++++++++++++++++++ XXXXXXXXXX ++++++++++++++++++++ XXXXXXXXXX ++++++++++++++++++++ XXXXXXXXXX ++++++++++++++++++++ XXXXXXXXXX ++++++++++++++++++++ oXXXXXXXXX ++++++++++++++++++++ oooXXXXXXX ++++++++++++++++++++ XXXXoooXXX ++++++++++++++++++++ XXXXXXXXXX ++++++++++++++++++++ XXXXXXXXXX ++++++++++++++++++++ XXXXXXXXXX +++++++ ++++++++++++ XXXXXXXXXX ++++++ O +",
"+++++++++ XXXXXOOXXXXX ++++++++++++++++++ XXXXXOOXXXXX ++++++++++++++++++ XXXXXOOXXXXX ++++++++++++++++++ XXXXXOOXXXXX ++++++++++++++++++ XXXXXOOXXXXX ++++++++++++++++++ XXXXXOOXXXXX ++++++++++++++++++ XXXXXOOXXXXX ++++++++++++++++++ oooXXOOXXXXX ++++++++++++++++++ XXXXoOOXXXXX ++++++++++++++++++ XXXXXOOXXXoo ++++++++++++++++++ XXXXXOOXXXXX ++++++ +++++++++++ XXXXXOOXXXXX +++++ O ++++++++++ XXXXXOOXXXXX +++++ O +",
"+++++++++ XXXOO..OOXXX ++++++++++++++++++ XXXOO..OOXXX ++++++++++++++++++ XXXOO..OOXXX ++++++++++++++++++ XXXOO..OOXXX ++++++++++++++++++ XXXOO..OOXXX ++++++++++++++++++ XXXOO..OOXXX ++++++++++++++++++ XXXOO..OOXXX ++++++++++++++++++ ooXOO..OOXXX ++++++++++++++++++ XXXOO..OOXXX ++++++++++++++++++ XXXOO..OOooo ++++++++++++++++++ XXXOO..OOXXX +++++ O ++++++++++ XXXOO..OOXXX +++++ O ++++++++++ XXXOO..OOXXX ++++ OOO ",
"++++++++ XXOO......OOXX ++++++++++++++++ XXOO......OOXX ++++++++++++++++ XXOO......OOXX ++++++++++++++++ XXOO......OOXX ++++++++++++++++ XXOO......OOXX ++++++++++++++++ XXOO......OOXX ++++++++++++++++ XXOO......OOXX ++++++++++++++++ ooOO......OOXX ++++++++++++++++ XXOO......OOXX ++++++++++++++++ XXOO......OOoo ++++++++++++++++ XXOO......OOXX +++++ ++++++++++ XXOO......OOXX ++++ O +++++++++ XXOO......OOXX ++++ O +",
"++++++++ OO....  ....OO ++++++++++++++++ OO....  ....OO ++++++++++++++++ OO....  ....OO ++++++++++++++++ OO....  ....OO ++++++++++++++++ OO....  ....OO ++++++++++++++++ OO....  ....OO ++++++++++++++++ OO....  ....OO ++++++++++++++++ OO....  ....OO ++++++++++++++++ OO....  ....OO ++++++++++++++++ OO....  ....OO ++++++++++++++++ OO....  ....OO ++++++++++++++++ OO....  ....OO +++++ ++++++++++ OO....  ....OO ++++ O +",
"++++++++ ....  ++  .... ++++++++++++++++ ....  ++  .... ++++++++++++++++ ....  ++  .... ++++++++++++++++ ....  ++  .... ++++++++++++++++ ....  ++  .... ++++++++++++++++ ....  ++  .... ++++++++++++++++ ....  ++  .... ++++++++++++++++ ....  ++  .... ++++++++++++++++ ....  ++  .... ++++++++++++++++ ....  ++  .... ++++++++++++++++ ....  ++  .... ++++++++++++++++ ....  ++  .... ++++++++++++++++ ....  ++  .... +++++ ++",
"++++++++ ..  ++++++  .. ++++++++++++++++ ..  ++++++  .. ++++++++++++++++ ..  ++++++  .. ++++++++++++++++ ..  ++++++  .. ++++++++++++++++ ..  ++++++  .. ++++++++++++++++ ..  ++++++  .. ++++++++++++++++ ..  ++++++  .. ++++++++++++++++ ..  ++++++  .. ++++++++++++++++ ..  ++++++  .. ++++++++++++++++ ..  ++++++  .. ++++++++++++++++ ..  ++++++  .. ++++++++++++++++ ..  ++++++  .. ++++++++++++++++ ..  ++++++  .. ++++++++",
"++++++++   ++++++++++   ++++++++++++++++   ++++++++++   ++++++++++++++++   ++++++++++   ++++++++++++++++   ++++++++++   ++++++++++++++++   ++++++++++   ++++++++++++++++   ++++++++++   ++++++++++++++++   ++++++++++   ++++++++++++++++   ++++++++++   ++++++++++++++++   ++++++++++   ++++++++++++++++   ++++++++++   ++++++++++++++++   ++++++++++   ++++++++++++++++   ++++++++++   ++++++++++++++++   ++++++++++   ++++++++",
"++++++++++++++++++++++++++++++++++++++++++++++++++++++++++++++++++++++++++++++++++++++++++++++++++++++++++++++++++++++++++++++++++++++++++++++++++++++++++++++++++++++++++++++++++++++++++++++++++++++++++++++++++++++++++++++++++++++++++++++++++++++++++++++++++++++++++++++++++++++++++++++++++++++++++++++++++++++++++++++++++++++++++++++++++++++++++++++++++++++++++++++++++++++++++++++++++++++++++++++++++++++++++++++++",
"++++++++++++++++++++++++++++++++++++++++++++++++++++++++++++++++++++++++++++++++++++++++++++++++++++++++++++++++++++++++++++++++++++++++++++++++++++++++++++++++++++++++++++++++++++++++++++++++++++++++++++++++++++++++++++++++++++++++++++++++++++++++++++++++++++++++++++++++++++++++++++++++++++++++++++++++++++++++++++++++++++++++++++++++++++++++++++++++++++++++++++++++++++++++++++++++++++++++++++++++++++++++++++++++",
"++++++++++++++++++++++++++++++++++++++++++++++++++++++++++++++++++++++++++++++++++++++++++++++++++++++++++++++++++++++++++++++++++++++++++++++++++++++++++++++++++++++++++++++++++++++++++++++++++++++++++++++++++++++++++++++++++++++++++++++++++++++++++++++++++++++++++++++++++++++++++++++++++++++++++++++++++++++++++++++++++++++++++++++++++++++++++++++++++++++++++++++++++++++++++++++++++++++++++++++++++++++++++++++++",
"++++++++++++++++++++++++++++++++++++++++++++++++++++++++++++++++++++++++++++++++++++++++++++++++++++++++++++++++++++++++++++++++++++++++++++++++++++++++++++++++++++++++++++++++++++++++++++++++++++++++++++++++++++++++++++++++++++++++++++++++++++++++++++++++++++++++++++++++++++++++++++++++++++++++++++++++++++++++++++++++++++++++++++++++++++++++++++++++++++++++++++++++++++++++++++++++++++++++++++++++++++++++++++++++"
};
