/* XPM */
static char *star_redimension[] = {
/* columns rows colors chars-per-pixel */
"64 64 162 2 ",
"   c #3F3E25",
".  c #413F26",
"X  c #434026",
"o  c #4B4627",
"O  c #454228",
"+  c #4B4529",
"@  c #4E4929",
"#  c #544A27",
"$  c #544A2A",
"%  c #5A4E2C",
"&  c #57502C",
"*  c #5D512C",
"=  c #63552A",
"-  c #68572A",
";  c #67582B",
":  c #6B5A2B",
">  c #725E2C",
",  c #645331",
"<  c #6A5632",
"1  c #675A31",
"2  c #6D5933",
"3  c #735B35",
"4  c #795E37",
"5  c #7A5F38",
"6  c #75602D",
"7  c #7D652E",
"8  c #6D6032",
"9  c #736533",
"0  c #796733",
"q  c #7D6C34",
"w  c #7D6139",
"e  c #647E3C",
"r  c #80672E",
"t  c #84692E",
"y  c #8C6E2F",
"u  c #8D702F",
"i  c #846C32",
"p  c #8C6F30",
"a  c #83643B",
"s  c #8D6A3D",
"d  c #916C3F",
"f  c #827037",
"g  c #8E7030",
"h  c #867439",
"j  c #887539",
"k  c #927331",
"l  c #997732",
"z  c #9C7932",
"x  c #927D3C",
"c  c #A37D33",
"v  c #956E40",
"b  c #996F41",
"n  c #977041",
"m  c #9C7242",
"M  c #A27644",
"N  c #A57946",
"B  c #AA7B47",
"V  c #AC7D48",
"C  c #B27F49",
"Z  c #67843F",
"A  c #69853F",
"S  c #6F883E",
"D  c #71863D",
"F  c #73893D",
"G  c #7C8C3B",
"H  c #678440",
"J  c #6C8540",
"K  c #738541",
"L  c #7B8542",
"P  c #738B41",
"I  c #878E37",
"U  c #8B8F36",
"Y  c #828E3A",
"T  c #96803D",
"R  c #8C9137",
"E  c #8A9138",
"W  c #939436",
"Q  c #9A9634",
"!  c #9E9834",
"~  c #909338",
"^  c #A99A2F",
"/  c #B59F2E",
"(  c #B89F2D",
")  c #A78034",
"_  c #AB8B3E",
"`  c #A29731",
"'  c #A39A33",
"]  c #AB9D31",
"[  c #B4913E",
"{  c #B6A02F",
"}  c #BBA22E",
"|  c #C4A62C",
" . c #C9A72B",
".. c #CCA92A",
"X. c #D1AB2A",
"o. c #D2B33F",
"O. c #DDB73D",
"+. c #838644",
"@. c #8B8645",
"#. c #8C8846",
"$. c #938646",
"%. c #9A8647",
"&. c #968847",
"*. c #968348",
"=. c #9D8648",
"-. c #9F8849",
";. c #849344",
":. c #8A9542",
">. c #929647",
",. c #969B47",
"<. c #9C9C47",
"1. c #AE8E43",
"2. c #A48649",
"3. c #AC844A",
"4. c #A38849",
"5. c #AD884B",
"6. c #B3844B",
"7. c #BB854C",
"8. c #B3884C",
"9. c #BC884D",
"0. c #AF9244",
"q. c #A8994C",
"w. c #B49746",
"e. c #BB9743",
"r. c #B69946",
"t. c #BD9B41",
"y. c #B49248",
"u. c #BF944E",
"i. c #BA9D49",
"p. c #A1A24B",
"a. c #B0A94C",
"s. c #C1874E",
"d. c #C3884F",
"f. c #C5964D",
"g. c #C2994F",
"h. c #CF9A51",
"j. c #C4A34B",
"k. c #CEA64E",
"l. c #C4A94F",
"z. c #D5AC4B",
"x. c #D5B645",
"c. c #D7B24F",
"v. c #DBB34D",
"b. c #C0A950",
"n. c #C3B250",
"m. c #CDB352",
"M. c #DAB552",
"N. c #D1B952",
"B. c #DDBE51",
"V. c #E6B555",
"C. c #EAB756",
"Z. c #E4BD53",
"A. c #E4C355",
"S. c #EDC256",
"D. c #EDC558",
"F. c #F2C756",
"G. c #F4C856",
"H. c #F2C458",
"J. c #F4CA59",
"K. c #FCCE5A",
"L. c #FFD15B",
"P. c #FFD260",
/* pixels */
": X * 6 o . . @ 3 V 6.7.v % . . X : : . = r o @ 7 # . . o , m 6.7.B , X X . = 6 o # t + @ > * . . . % v C 6.7.5 + . . + > = . : ",
"r @ X o X . + v 7.*.L &.9.M @ . . X o O > g # . X . . . 5 6.2.L @.7.6., . X X X . = l = . o . . . , V V +.L 5.7.a . . . O X @ r ",
"c : . . .   < 7.5.S H K 6.7.< . . . . % l c r o . . . + M 7.L Z Z =.d.s X . X . + l c g @ . . .   v s.m Z Z +.d.V $     X . : c ",
"r @ . X $ w B 5.@.Z H J #.6.V a % . . o > y % . . o 3 M 5.*.J Z J L 3.6.d , X X . = l - . . . = v 3.4.K e e S %.6.M 3 + X X + r ",
"o . O O v 7.&.J Z Z Z Z J J =.d.b X . . . @ . . . < 7.5.K Z J Z J Z J +.9.V $ . . . + . . . $ B 6.L Z Z e J Z Z L 5.7.4 . . . + ",
"X . . = C 6.K Z Z S ~ G H Z L 9.C , O . . . . . + m 7.@.Z Z Z E E Z H J 3.d.a + . . o . . . 5 s.2.J H H G ~ S Z Z #.d.m # . X . ",
"X $ s V 2.+.J Z Z Q ..} G Z J +.2.C v % . . . a B 5.$.S Z Z E | | E J J L %.3.M < . . . 3 M 3.%.K H H G ( ..Q Z Z D $.3.B 5 + O ",
"  w d.=.J H H H Z Q  .} G H Z Z K 2.d.a . . , C 8.K Z Z J J E | | I e Z Z Z @.d.M + . + M s.+.H H H H F ( ..Q Z H H J L 6.7.,   ",
"< B 9.+.Z H S Y S S ] E H G G Z Z +.9.V , % v d.&.A Z Z G S A Q Q H F G Z Z P 6.7.a # 5 7.2.K H H G G e I ' S S Y Z Z Z -.9.m % ",
"7.5.+.Z Z Z Q  .! R  .^ E { } G H J L =.C 6.6.$.S Z Z E } ] E } } E ] | E Z Z K $.8.6.7.=.L H H G } } I ] | R ! ..Q Z Z F +.3.7.",
"C 2.J Z Z F } X.} ] ..| ]  . .W H H J %.B B 7.L H Z Z ] X.| '  . .] | X.] Z Z Z +.C B 7.#.e H H W  ...` ( X.^ } X./ D H H L 3.V ",
"% N $.Z Z Z G ] G F ] ~ A Q Q S H H +.N % + s 2.J Z Z F ] R S ' ' A E ] F Z Z K 3.3 + 3 V K H H S Q ! e W ^ D Y ] G J Z H =.v + ",
". w 6.#.S Z Z Z Z G } ! S J A H J +.5.a .   % V &.K Z Z A A F ] ] F A A A A L 4.M + . X m 4.L J H A A S Q ( G Z S Z Z K $.3.,   ",
". @ w N 2.K H Z S ^ X.| Y H Z A %.N a $ X . + 3 m 3.L Z Z Z Q  ...W H A A +.3.s , . . . = s V #.Z Z H Y | X.] Z J Z K 2.b 3 . . ",
". .   $ 3.+.A A Z G { ! Z Z Z L V * . X X . . . o d %.J Z Z :.x.o.:.H H J 4.w X .   . . . . 3 3.K H H J Q ( G Z Z Z *.m @ . . . ",
"$ X . O a 3.&.K Z Z F S Z J #.5.s O . X @ $ . . . < 5.-.L p.D.L.L.D.p.+.4.N $ . . + % + . O $ N 4.+.J J Z F Z J K =.V 3 . . . $ ",
"p $ . . @ < M =.J H H H H $.N 3 + . X @ t l = . X O , s u.J.L.P.L.P.J.y.w & X X o 6 z > O X O % w 3.+.Z H H H K 2.v < + . . % p ",
"c : . . .   * 6.+.H Z Z K 3., . . . . % l c 7 X . X   + k.L.L.L.P.P.P.l.O   X X o u c u o       X a 2.K e H H #.N + O . . . : c ",
"> X X @ . . + s C 2.D L 2.v + . . + o X - t @ . @ X   8 D.L.L.L.L.P.L.D.8   O o   % y %   o O   . % M 3.+.J #.B 5 . . . o o O > ",
"7 $ 6 k % . . + * m 2.3.5 + . . + t t + > y % - k = O r.L.L.P.L.L.P.L.L.w.o 6 u # - u - % y 6 O . . @ 3 V *.B , O . . % g > # 0 ",
"c t z c r X . .   2 7.M + . X X : ) c r l c y l ) g 9 D.P.L.L.P.L.L.P.L.D.f z ) y u ) k y c z % . . . O v 7.v   . . X 7 c z t c ",
"r # > y % . X X @ s 7.3.< X X X @ t r $ > y % = k ; w.L.P.L.L.P.L.P.P.L.L.r.6 u % - k - % y > o . . . % N 6.m $ X . . % y > + r ",
"> o o @ . . X 4 M 3.L $.V a X X X o + X - r o . + 8 D.L.L.L.P.L.L.L.L.P.L.D.> o X # y % . @ X . . + s B *.L 2.B < X . . o o o > ",
"c - . . . . % C 8.K Z J 6.6.% . X   X $ k c 7 # & r.L.L.P.L.L.P.P.P.P.L.L.L.r.* # u c y o . X . . 5 s.$.e e +.9.M o . . . . - c ",
"p % . . X # s 3.L H H Z L 5.d $ + & 1 h } x.v.x.Z.K.L.L.L.L.P.L.P.P.L.L.L.P.K.Z.x.v.v.[ h 8 * @ % N 2.e e Z J $.6.3 + + . . % p ",
"$ . . X 4 C 2.L J H H J Z D 2.f.z.Z.F.K.L.L.L.L.L.L.L.L.L.L.L.P.L.L.P.L.L.L.L.L.L.L.L.L.K.F.Z.x.f.%.D Z Z Z Z Z +.6.B = . . . $ ",
". . . @ N 5.K Z Z Z G F Z Z <.K.L.L.L.L.L.L.K.K.L.L.L.L.L.L.L.P.L.L.P.L.L.L.L.K.K.K.K.L.L.L.K.L.J.<.Z Z S G H H Z @.s.a . . . . ",
". O = s 5.L A Z Z E | ] F A N.L.L.K.L.L.K.K.L.K.L.L.L.L.P.L.L.P.P.K.L.L.L.L.L.L.K.L.K.L.L.L.K.K.L.N.Z S ^ | U H Z Z @.3.a % X . ",
". < 7.2.L H J H S ] X. .G P A.L.L.L.L.K.K.L.L.L.L.K.L.L.L.L.L.L.L.L.L.P.L.P.L.L.L.L.L.K.L.L.L.L.L.A.K G | ..` S H H Z +.6.V % . ",
"@ b 6.L H H J F H F ] W H G A.L.K.K.L.K.K.L.L.K.L.L.L.L.L.L.L.L.P.L.L.L.L.L.L.L.L.L.L.L.L.L.L.L.L.B.F J U ^ F Z F S Z Z $.7.5 . ",
"M 3.L H Z Z R } E G { ! F ] O.L.K.K.K.L.K.L.L.L.L.K.L.L.L.L.L.L.L.P.P.P.P.L.L.L.K.L.L.L.K.L.L.L.L.O.] F W / G E } R Z Z H +.3.v ",
"C 3.K H H F } X.} { .. .] ..X.x.K.K.K.K.L.K.K.L.L.L.L.L.L.L.L.L.L.L.L.P.L.L.L.L.L.L.L.L.L.L.L.K.x.....] | ../ | X.} F Z Z L 6.V ",
"% N @.e Z Z E / E Y } ! F ] ] F a.K.L.K.L.L.L.L.K.L.L.K.L.L.L.L.L.L.P.L.L.L.L.L.L.L.L.L.L.L.L.a.P ] ] G Q ( Y R } R A Z A =.d + ",
". 5 6.@.S Z Z F Z F ] R Z S F H F j.K.K.K.L.K.K.L.L.K.L.L.L.L.L.L.L.L.L.P.L.L.K.L.L.L.L.L.K.i.S H S J H U / D J F J Z K &.5.= . ",
". $ 5 N 2.S Z H A ] .. .E H H J $.N _ G.K.K.K.K.L.L.L.K.L.L.L.L.P.K.L.P.P.L.L.L.L.L.L.L.J.y.3.@.Z H H Y ( X.' Z H Z P 3.m 3 + . ",
". . . % V +.Z H Z E | ] F H H L N % o U G.K.K.K.L.K.K.K.L.L.L.L.L.P.P.P.P.L.L.L.L.L.L.J.x X 3 5.K Z H F ] | R Z H Z *.m + . . . ",
". . . . s 6.%.K Z A Y F Z J $.3.s X X X x K.L.K.L.K.K.K.L.L.L.L.L.P.P.P.P.L.L.L.L.L.K.T X . $ N 4.@.J H S G e Z K 2.3.3 . . . . ",
": + . . + < M =.Z Z H A H $.M 3 $ X X X 0 J.L.L.K.L.K.K.L.L.L.L.L.P.P.P.L.L.L.L.L.L.G.8   X X $ w 3.+.e e Z Z K 3.d , o . . + > ",
"c : . . . . = 6.+.Z Z A K V , . X X . $ ] L.L.K.L.K.L.K.L.L.L.L.P.L.L.P.P.L.K.L.L.L.L._ o . X   . a 2.K Z Z Z #.N @ . . . . - c ",
"g % . . . . O s 3.-.K L 6.b + .   X X @ } L.K.K.L.L.L.L.L.L.L.L.P.P.P.P.L.L.L.L.L.L.L.0.O X X X . % N 3.@.S $.C 5 . . . . . % p ",
": . # : + . . + % M 2.3.5 + . . X = * O a.L.L.K.K.L.L.L.K.L.L.L.L.L.L.P.L.L.L.K.L.L.L.i.O - # X . O O 3 V =.B < o . . o - % . : ",
"l > k c > . . . . 3 7.N + . o . * z z 7 v.L.K.L.K.L.K.L.L.L.L.L.L.L.L.L.L.L.L.L.L.L.L.c.q ) k # . . . O v 9.a . . . . > c g > l ",
"l > l c > . . . + s 7.7.< . . . = l l t S.L.K.K.K.K.L.L.L.L.K.L.L.L.K.L.L.K.L.L.L.L.L.D.g z g $ . . . % B d.b $ . . O > c g > l ",
": . # - X . O 5 M 3.=.6.C a . . X * * 8 G.L.L.K.L.L.L.L.L.L.K.L.L.L.L.L.L.L.L.K.L.L.L.J.9 ; $ . . $ s N 2.=.7.N < . . + - % . : ",
"p % . . X . % C 9.L Z L 7.7.% . X     h K.K.K.L.L.L.L.L.L.L.L.K.J.L.L.L.L.L.K.L.L.L.L.L.h   . . . 3 s.2.Z Z *.d.m + . . O . % y ",
"c : . . X $ s d.-.Z Z Z 2.7.s # O     T L.L.K.K.L.K.L.L.L.L.a.P ;.n.K.L.L.L.L.L.L.L.L.L.T     o , N 9.@.Z Z L 8.7.5 + . . . - c ",
": o . . 4 C 3.#.K Z Z J K #.5.6.0 O   q K.L.L.K.L.L.L.K.N.;.A Z H J :.m.K.L.L.L.L.L.L.K.q   o v C 2.+.H e J Z L %.6.N = . X o > ",
". .   @ N 7.+.Z Z J Z Z Z H @.d.B @   o o.L.L.L.L.L.C.p.A Z A A J H H K u.C.K.L.L.L.L.j.o . , 7.V J H H Z S Z Z Z 2.d.s X . X X ",
". + , s 9.-.J Z Z F ' R A A J 4.7.v , O & 0.Z.H.C.h.8.K Z A A Q ! A A A *.9.h.V.S.Z.0.* @ 2 M 7.#.H H J I ' D Z Z +.8.6.a % . . ",
". 2 7.3.L J Z A A ' ..| Y A A K +.8.6.4   X 1 7.9.@.K H A A ~ ....~ A A A K 2.d.N * X . s 7.2.K J H J L | X.' S Z Z K &.7.B % . ",
"+ v d.@.Z A A H A R | ] S Z A A H $.d.m +   3 s.2.J J H J A G } } G A A A A L 9.C * . % C 6.L Z H H H J ] | R Z Z Z Z J 5.d.5 . ",
"m C =.K A H F Q F S ] E A E E A J K 2.6.n v C 3.+.Z Z Z W G A Q Q A G R A A J $.8.B s B 6.&.J Z J E E J I ' S D W F Z Z +.3.C v ",
"d.2.J J Z S ] ..] !  .} Q | | E H H J $.7.d.6.L Z Z A ! ..} Q | | W } ..Q J H A L 6.d.d.#.Z Z H E |  .Q /  .' ] ..] S H Z D 3.s.",
"s C +.H Z S ] ..{ !  .} Q | | E H J K 5.a 4 B *.Z Z A Q ..} Q | | W } ..Q J H J 2.m 3 m 2.J H Z E |  .W {  .' ] ..] S Z Z #.V w ",
"X d 2.K H A F W S A ] E Z E E A H J %.n O . 3 3.L A A A W G A Q W A G W J H H +.V %   $ B @.Z Z Z E E H E ] Z F W F H Z K 3.3   ",
". , B 3.@.Z Z Z A ~ | ] S A A A L 5.V < X X @ m 6.%.J A H H G } } G A A H K -.B v O . . a C 2.L Z Z H F ] | R Z Z Z J $.6.m $ . ",
". O $ w 6.L Z H A ' ..| G A Z S 3.a $ O   . X @ < V #.H Z Z W ....W H A A -.m & o . . . o % b 2.S Z Z G | X.' Z Z Z +.V < + O . ",
". .   O m 2.K J A F ' ~ A A K &.M +   X . . X . . 5 5.+.J J J Q ! S H F +.6., . . . . . .   % 6.@.K Z Z I ' F Z Z +.3.a . . . . ",
"* X . X < m 6.@.A Z A A Z +.5.m 2 . X . # - X . . $ v V %.J H H A Z S 4.V a + X . @ : @ . . + w N 2.K Z Z S H J &.6.d % . . O = ",
"z = X X X + 5 3.S A A Z Z 4.a o X X . $ y c > X . . . = 6.+.H H A Z #.m $ X . . o t c t + . . . + b %.Z e Z J L 3.< o . . . = l ",
"l = . . . . $ B 2.L Z K &.3.% . . . . $ y c > . . . . . v 3.@.J Z +.5.4     X   @ r c r o . . . . 3 6.$.e K L 2.m X . . . . = l ",
": X @ % . . . < d 6.@.=.N 2 . . . # # X = r X o % o . . $ a N %.@.V a @   X + % . # r # . % + . . + 3 b 2.+.5.b % . X . % @ . : ",
"u * r l - . . . . a 6.V % . . . % k k - 7 l - 6 c 6 + . . . < C 8.4 X   X @ r z - > z > - l i @ . . . $ M 6.v + . . X - z t = y ",
"c y z ) r o . . . 3 d.B + . X . : z c t l c g k c k + . . . $ C 7.=   X X * z ) y l c l y c c * . . . O v d.w . X . X t c z t c "
};
