/* XPM */
static char *wall_redimension[] = {
/* columns rows colors chars-per-pixel */
"64 64 206 2 ",
"   c #35251A",
".  c #38271B",
"X  c #362B1B",
"o  c #3B2A1D",
"O  c #302116",
"+  c #35341C",
"@  c #3A331E",
"#  c #353C1C",
"$  c #3A3B1E",
"%  c #3F2D20",
"&  c #3D3320",
"*  c #373D21",
"=  c #3C3C21",
"-  c #402D1F",
";  c #40311F",
":  c #412E20",
">  c #423323",
",  c #413A23",
"<  c #453328",
"1  c #49362A",
"2  c #4C3B2D",
"3  c #433928",
"4  c #503D2F",
"5  c #513E31",
"6  c #34441C",
"7  c #3A441F",
"8  c #36481F",
"9  c #3C4A1F",
"0  c #2F461D",
"q  c #2E4C22",
"w  c #364521",
"e  c #3A4421",
"r  c #364B22",
"t  c #3A4C22",
"y  c #3C4328",
"u  c #3E4D29",
"i  c #355125",
"p  c #3A5325",
"a  c #3C542A",
"s  c #3C5A2B",
"d  c #33532C",
"f  c #3C612E",
"g  c #40401F",
"h  c #414425",
"j  c #424C24",
"k  c #45422A",
"l  c #444C2A",
"z  c #494D2E",
"x  c #49422E",
"c  c #44522C",
"v  c #4A532E",
"b  c #405A2E",
"n  c #445126",
"m  c #4C4D32",
"M  c #544335",
"N  c #524B36",
"B  c #564639",
"V  c #594538",
"C  c #544B38",
"Z  c #5A4A3C",
"A  c #594537",
"S  c #465532",
"D  c #4C5432",
"F  c #445C32",
"G  c #4C5A35",
"H  c #435A38",
"J  c #4C5D3B",
"K  c #525236",
"L  c #535A35",
"P  c #54553A",
"I  c #5A553D",
"U  c #545B3B",
"Y  c #5A5B3E",
"T  c #585B36",
"R  c #614C3E",
"E  c #40612F",
"W  c #446234",
"Q  c #486237",
"!  c #4D633C",
"~  c #52633D",
"^  c #56673E",
"/  c #5F4E40",
"(  c #5E5541",
")  c #5D5C42",
"_  c #505E41",
"`  c #624F42",
"'  c #645445",
"]  c #625C44",
"[  c #695648",
"{  c #645D49",
"}  c #6C5C4D",
"|  c #675549",
" . c #715D4E",
".. c #6E5D50",
"X. c #725F51",
"o. c #4D6541",
"O. c #546142",
"+. c #5B6342",
"@. c #546C43",
"#. c #5A6A45",
"$. c #5D6549",
"%. c #5D6B4A",
"&. c #556B48",
"*. c #5B734A",
"=. c #557447",
"-. c #5F7654",
";. c #626445",
":. c #626846",
">. c #656349",
",. c #6A644C",
"<. c #646C4B",
"1. c #6A6A4D",
"2. c #62734E",
"3. c #64784F",
"4. c #6D6451",
"5. c #6C6D51",
"6. c #676C50",
"7. c #736453",
"8. c #796657",
"9. c #736B54",
"0. c #776459",
"q. c #7B6658",
"w. c #766B59",
"e. c #7D6B5B",
"r. c #7A6857",
"t. c #657352",
"y. c #6C7154",
"u. c #657A54",
"i. c #6B7C56",
"p. c #6D7659",
"a. c #6F7B5B",
"s. c #727256",
"d. c #75745A",
"f. c #7B745C",
"g. c #747C5D",
"h. c #7B7B5E",
"j. c #707A57",
"k. c #70674E",
"l. c #7E7262",
"z. c #7C7D62",
"x. c #777D61",
"c. c #816C5D",
"v. c #82725F",
"b. c #81795E",
"n. c #826F60",
"m. c #837363",
"M. c #897564",
"N. c #847B64",
"B. c #887A66",
"V. c #867B69",
"C. c #8B7C6B",
"Z. c #897669",
"A. c #927D6D",
"S. c #8E7E71",
"D. c #917F71",
"F. c #73815C",
"G. c #7B8264",
"H. c #7E8569",
"J. c #7F8A69",
"K. c #798764",
"L. c #838266",
"P. c #868369",
"I. c #8B836C",
"U. c #83896C",
"Y. c #8C8A6E",
"T. c #91836F",
"R. c #91886F",
"E. c #87926F",
"W. c #8E8D73",
"Q. c #848B70",
"!. c #948373",
"~. c #9A8574",
"^. c #938B74",
"/. c #9A8A76",
"(. c #9C8C7A",
"). c #968F78",
"_. c #8B9375",
"`. c #939175",
"'. c #979278",
"]. c #9C947D",
"[. c #959779",
"{. c #A08E7C",
"}. c #A2927E",
"|. c #9D9281",
" X c #9C9A81",
".X c #A08F80",
"XX c #A49482",
"oX c #A99784",
"OX c #A69A85",
"+X c #AA9885",
"@X c #AC9C8A",
"#X c #A79788",
"$X c #B19F8E",
"%X c #A6A389",
"&X c #ACA18D",
"*X c #A3A187",
"=X c #B1A28F",
"-X c #B4A492",
";X c #B9A796",
":X c #B5A994",
">X c #B9A997",
",X c #BCAC9A",
"<X c #BFB09D",
"1X c #C0AF9D",
"2X c #C2B19F",
"3X c #C5B4A2",
/* pixels */
"*.Q r & o X X X     . . %   O   o o - o o : o o : . X $ 8 6 6 q r i r i 8 = % : % . . % 2 4.y.u.^ N.! S.,X-X;.6 6 6 6 v e.&.a.!.",
"g.Q t t t t w @     o . 1 Z 7.0.5 o - : . : o o , 7 t t 8 6 6 0 8 8 i r 6 . . . % .   . 3 f.U 2.=.G &.!.!.{.,.t 6 # # t 5.H.H.|.",
"}.s.t t w @ X %   . % A M.+X3X3X$Xq.> o . .   % $ 7 w t r 8 6 6 0 6 0 6 w w * e &     . 3 { 1.[.=.G t.XXC.9.] 8 6 + . o z %.a.|.",
"/.s.i i t + . = * + ' A.{.@X-X3X>X=X|   . . . . o - ; 8 8 6 0 6 6 6 + + o . o @ X . o > o K 9.!.u.t.p.I.v.1.] 6 +   .   % o.*.V.",
"K S a w $ @ . & * z m.~.$X).^.:X@X-Xc.. . o o o o o X 7 7 # q q # 6 8 # # * % . % % * w y r m 9.g.o.o.$.9.Y n # .   X o * s f c ",
"t p * o = = + & % m e.D.].I.P.U.I.{.v.$   o o . o o + 6 6 6 6 6 6 6 6 r r t * . . % * r r r u ;.a.H %.U h.L # X   . @ ; y t t t ",
"9 p t 7 r s s w w u 4.0.d.+.9.y.e.m.r.o o o o o o o . @ # # 6 z >.>.) J r r X %   X r r r r r S <.(.&X+.G e .   o ; g 9 8 t t 9 ",
"9 j 9 t r s a r r r D ..>.O.<.y.C.Z.N.@ ; - - o o   @ @ @ + z q.N.~.-X;Xx.u + . % & r a p t a G W.L.;.c 8 ; o . - @ o @ 7 e 7 7 ",
"j g g 9 r r p t r r r P ,.H U $.^.x.V.y # # X . . . % o   : X.Z.p.:X3X X-.~ 6 X # w t r b t a p p 6 6 6 9 X     o o . . o o . @ ",
"9 9 9 t c c r r r r 8 8 z l ! %.<.J 7.y # # O   : o . . . 1 0.N.H.2X3X&Xu.L.7 8 t r # t s a c p 8 # 6 6 + o o   o o . o o o 9 h ",
"@ $ v f.OX X:.r r r r 6 6 w q H G P ' 7 # # +   % % . . . < 0.^._.3X&X:XU.'.v i t @ o # w w w u I  .Y 6 #       . . . o - @ $ ; ",
"9 g f.$X,X).&X9.y r q 6 y l t t j f.} 6 6 6 $   . : o . o & } x.i.OX:XP.3.N.L 9 $ + o . o % % = c./.}.1.6 6 #     . o - - - .   ",
"8 j B.-X,XN. X;Xt.q 8 6 D ..( I e.=X] @ X @ & . . . . & # 8 N F p d.-X9.a ;.c 9 w @ . e e u a u Z.T.oXoXL.j 8 # . o o o o   X $ ",
"8 j v.^.,X).W.=X^.! 8 9 8 K Y 7.I.h.h o o o . % % .   # + # u l a L.=XC.Y 7.c $   X @ = $ $ a P c.c.A.oXoXf.h @ . : - - - . $ 7 ",
"@ h C.N.@XXXd.|.!.XXn 9 g 9 g n j g @ o o o   . .         X e >.P.XX^.^.C.m.S 7 $ $ 7 t e h ) L e.c.~.oX+X/.l   . % - - . - ; @ ",
"@ y C.N.|.^.l.S.!.!.T 9 j $ @ ; , o . . . .   . . o . .   X + m v.d.z.G.m.m.D i p L D h 9 t L J } k./.oX+X~.l @ %   . .   o - - ",
"+ 6 4.!.-Xa.4.S.+XD.] j 9 + - - -   - .     . o : o o o .   . # z ;.J.f.Y b.n p i.>X:X].G t 8 Q 1.v.T.C.T.I.h @ -   o > -   . o ",
"N 8 j f.(.z.&.P.A.A.Y g $ . - .     o o . . o o o : - o o     % e n ^ Y k.;.t W J.3X3X2X=X`.D 6 v q.m.q.9.v.6 # o   o - - . o M ",
"@X1.6 l !.L.s J q.Y 8 8 $ - .   o o - o . . : - o . o . o   . + w l ;.I.v.n p k.K.>X%X<X3X3Xz.6 m ' [ k.k.Y 6 6 $   o ; - | {.;X",
"2X@Xv t d.N.a S v 6 6 # . .   o - - : o : . : o . . : : o   & w r v N.}.;.8 g b.J.[.E.2X].>X].6 m ' ] B.>.7 0 6 # + X . V @X1X1X",
":X:X}.c 6 6 6 6 6 $ @ . . O . o . . % . o .   + X   o % @ $ Z >.L r c S 9 p t f.i.=.-X2Xz.L.g.6 K 8.Y 8.K # # 6 0 6 6 k (.,X&X@X",
"_.U.:.u 6 + @ + . o - : : . . - % % & M X.n.f.G w # 8 e h d.>X1X;XP.S r 9 9 t k.t.2.=X2Xf.a u 6 n G 8 e # @ + 6 # 6 6 ;.@X-X-XG.",
"j.6.6 8 8 + o . . o . - : :   o : = K e.-X3X3XXXY.j 0 u d.XX1X2X3X3X@X+.9 j g T <.:.T.}.m.) r 8 t 6 + @ o . . + 6 6 0 ;.(.OX].o.",
"O.u # + X . : . . . - : : -     @ h L ^.2X,X2X'.).r 6 L P.].+X1X3X3X3X:X:.g g n s.N.v.<.m.>.q 8 $ o - .     . . # 6 6 Y m.V.(.t.",
"b w X . . . . . . . % . . . + @ = l +.I.3X&X].'.d.9 9 p I.2X:X$X3X X=X3XR.9 g D 5..XZ.9.+XL 6 6 @ : : 1 % . o o $ 8 # j 1.G N.L.",
"W t * e * o .   o % . . o $ w 6 l ) 9.V.&XOX'.s.y.8 # # '.3X2XXXXX=.f.$X^.j g T l e.~.-X].u w Y ^.{.M.M.` . % % - -   @ j Y t.<.",
"f u w w w & + o       % o # 6 6 ( m.A.L.y.<.G.1.t # + $ k.=XY.T.L.~ >.(.9.g 9 L +.D ' } C 7 I /.1X-X@X.X~.M . % - o . . X +.).o.",
"s u r r r u +.I.>.X . .   + # 7 9.m.w.#.F J ~ L 6 # 7 8 t >.G U.i.<.].+X8.g $ j ( J { { u 8 U oX,X;X;X;X,X!.4 . . o . o $ t +.S ",
"* w r u 5.|.,X3X@Xm   . # 6 8 8 d.;.G r r p 8 8 6 X X @ $ t t 2.i.}.oXM.9.$ g g n U 2.#.r u 4.#X@X-X;X3X3X1Xm.% o o . . X = = = ",
"& = r D V.>X3X@X=Xn.. . X + $ # 8 t i r 8 8 8 6 # o o . o o $ s ! I.b.T j 7 9 p 9 n n p r l 9.d.^.>X1X3X3X3X@XV . .       o o . ",
"y y r r S V.I.L.-XN.& % @ @ = $ 8 t r 8 8 r 8 # X o o . o . @ n g L <.g 6 6 6 7 ; g t p w N >.#./.:X3X3X3X3X,Xc.    o : o % * w ",
"@ + + * r ,.!.;.V.g.l & = 6 w 8 t 8 7 $ @ & @ X . . . . o   X 9 j t 8 9 7 @ @ . o ; ; @ + C ) #.v.~.,X,X-X,X@X| . o % : % . o o ",
"  . o o 8 9.oX~ h.J.^ 7 7 7 $ $ 7 = o   O . o .     $ $ 6 + + 8 9 8 9 6 # - o o @ ; -   o z ( G ;.e.S.!.m.l.C.Z . . o : : . . . ",
"  . : @ 8 1.I.^ P.F.+.7 @ . . o o :   o .   . o X X X @ 7 8 t 9 8 8 q 9 # # h N N 2   . $ n U F D ..7.} ) l.XX|   % o : o : o   ",
". = e 6 n :.W h.I.^ p 9 o . . - : . . o o . O   # 7 8 9 8 8 9 9 9 q q 6 6 z  .c.M.q.M ; ; w c W u ' 0.{ L T.(.Z   . . . o o - - ",
"o & & $ t #.=.U.].W t @ . o - .   . o . o %   . o # 8 6 6 6 i p f i p 6 z c.A.{.}.~.v.K 7 w s b r m | _ P /.^.C     o . . . X o ",
"w w t t t i b <.F.p $ .     .   % % o . o - o   . X X   + # 8 p f i r u k.A.{.}.+X(.B.>.u u s a r y @ = t c j = X % : . . > $ e ",
"X e w t 9 t t t u @ @ . o - o . : : o 1 R  . .[ 1 . X o @ # 8 i p t t s 9.~.}.+XoXXX~.k._ r s p r $ o @ 7 8 w % % % .     : o o ",
"o ; o 9 t t t t 9 e t ; o o - . - - 4 c.A.!.!.A.c.1     o # 9 i 9 9 t P :.B.{.}.oXoX!.U [ u r * @ & % . + m ..0.0.| < +     o . ",
"o o X > 9 t 9 t 8 8 = - o o o o   -  .!.}.}.}./.~.e.3 X . @ 7 t 9 p t C +.1.s.I./.(.<.D 4.= * .   . . . 2 n.A.~..X.Xw.y o       ",
"  + # e w t 8 8 6 $ 7 @ o o o o O 2 v.I.}.}.'.R.(.T.B # X . . , p t i K _ >._ d.d.^.+.l ,.u w . . . . < q.D.(.XX^._.%XU % % . . ",
"  . o X @ $ $ = 8 9 7 X . o o o . 5 v.b.}.$XF.Y.}.~.' 6 @ @ o : 9 7 8 l D _ $.,.P N.1.l ) u w & : > % Z c.D.$X|.'.J.`.x.< % % . ",
"o . o 6 6 7 7 6 q 8 7 7 3 m.I.2 - A ;.R.F.].F.L.(.b.[ * 6 r r 6 6 # 6 6 6 d 4.Y l m.N.) Y t e = & : . C } f. XP.].*Xu.y.& . . % ",
"@ . o + @ # 6 q q 6 6 v }.3X3Xe.; v T b.F.Y.3.L.T.N.] 8 r q 8 6 6 6 6 6 w r ;.7.,.Z.C.C.{ & @ @ o .   2 I 8.%.+.^.:X! F p y e = ",
"  . . : . o + 6 6 6 6 I.2X2X2X&XT 9 j L L.F.*.L.v.9.m 8 i q 6 6 6 6 6 6 6 r n U e.c.c.7.& . . . . . % 3 C l.%.z !.(.D L s p 9 @ ",
"    : : . % . X # 6 ^ }.}.=X1X1X`.L j n s.^ W T G v t 8 r 0 0 6 + # 6 6 r r s i K { k.x o o o o o w w r m x.%.l.V.C.9.Y s w $ . ",
"    o o   . .   + 6 L.}.Y.[.{.}.1X`.j g n E n p i t 8 8 6 0 6 6 # 6 6 w r t i t t r u ; o o o .   $ w u a z.<.V.k.e.+Xy.p e @ . ",
".   .     o : . X $ s.}.s.L.L.L.}.}.~ 9 p p 8 9 7 8 6 6 6 6 6 6 6 6 t e @ $ 9 t 7 e $ X o o @ @ $ y t t S _ J ] ) }.@X1.p t @ . ",
"  . : %   . o : & # ) .Xl.) 9.S.>.d.S i p p 8 8 8 8 6 # @ 6 t r u r t @ .   + @ o o o o . . X $ 9 p p s N H S m ) |.T.) # @ . - ",
"  . % . . o . o X + u T.XXf.d.^.) u i p p p 8 6 6 6 6 # o o 7 t t r D } X.Z >   o o o : o     - @ 8 n p u a _ ( P D.!.G r 7 o o ",
". % . . % 2 V 1 * 0 6 l ].@X(.;.P l 6 r i i 9 t @ $ + . o o = r z N.@X,X1X-Xe.. . o o - ; . X X @ t s p 8 8 l K D @Xd.9 t w X   ",
". o . 2 c.#X-X@X#.# 6 w 6.].] h { z 6 6 8 8 9 # o .           y w.@X3X,X2X1X@X/ - o o - o $ * e $ 7 8 8 7 $ 6 8 c J i 8 t 6 7 $ ",
". o 1 M.;X3X3X<XK.L 6 8 K m z N.V.r 6 6 6 @ : : Z > o : . + # m !.'.&X[.=X].-Xr.- - o o . . : % . O . : - . # 6 8 6 r i $ @ o @ ",
"  . V XX,X3X3X%X_.Y.t 6 K N.#X&X<.# + + . % o ` c.4 o : o = w ] g.P.[._.%XN.XXq.. . . .   . . o o . o > o X 6 6 8 6 i y o o o o ",
"o . V ^.;X3X3X[.*X>XY 6 Y !.r.C @ +     . @ & 7.7.V . o o o = ] g.:.j.U.!.h..XX.      o o : - o o o . : @ # 8 8 8 6 e o - . o o ",
"o o 3 s.W.@X>X_.:X1XI.6 * : o . % . o %   $ k.m.0. .@ @ = $ e D ,.~ G g.L.F N.`   . o o o : : : > - . o - @ @ + +   . . o o @ X ",
"y y y ] F.g.s.i.@X+XI.u $ @ o . ; - - - 7 K ;.T.T.k.9 9 8 8 8 9 D s.n *.OX3.(.m X + o o o o : : : : . . o . o . . o o   X $ 8 t ",
"1.r t J B.Q Q 3.I.S.I.a r w # . - - - x h K v ] Y p 6 6 8 i 8 8 t j p ^ i.j.d.t 9 t 8 @ o . o o . . . o : . : > = $ # 7 t J 6.z.",
"F.S r r ;.6.F.F.N.l.d.c y = @ . - - 4 v.' C w 6 6 6 0 0 q i 8 8 i 8 t n t n 9 9 , @ X . o o o 1 | }  .X.` o . . # 8 8 l l.).#X].",
"i.U r t u 9.F.h.V.z.+.3 @ : : o o - A v.c. .C D 6 6 0 8 q q 6 6 i t 9 9 9 g $ @ % . . % . . 4 D.$X-X$X@X!.} >   o e w { m.g.|.#X",
"G.<.r s i L ~ y.L.P x @ o . - - o   o I v.B.v.] 6 8 6 6 0 q 0 8 i 8 9 j j g o X   . % o o . 7.;X1X,X@X-X@X(.V o + + y 0.Z.p.W.|.",
"G.y.s s 9 u b L >.z , ; @ o o - - o + g j n v t # 7 9 8 0 6 6 9 i 9 9 9 9 X     . . o . . 1 XX3X2X&XQ.=X@X@X} X # # q _ V.x.6.Z.",
"p.<.a p t t 8 9 n j t $ o o . @ 7 7 g g g g $ o . o - # 6 6 0 0 i p 9 g 9 .   - % . . . . ` -X,X-X%XQ.=X=XOX) . . # q _ p.x.l.l.",
"a.g.c t e # $ 9 ; $ @ . . .   X @ @ $ @ ; ; - o . o o   # 6 0 8 8 i 9 9 g 9 ; - : . . o o ( _.`.P.|.H.#X>X].Y # X 6 * ( p.&.a.S."
};
