/* XPM */
static char *wizark[] = {
/* columns rows colors chars-per-pixel */
"64 64 234 2 ",
"   c #3F3E25",
".  c #6B1E1B",
"X  c #5C391B",
"o  c #733B0E",
"O  c #7A3A0C",
"+  c #6A3B12",
"@  c #673919",
"#  c #713115",
"$  c #472525",
"%  c #413F26",
"&  c #4C3C22",
"*  c #533A21",
"=  c #552C33",
"-  c #682620",
";  c #683625",
":  c #7B3627",
">  c #782022",
",  c #774917",
"<  c #76511B",
"1  c #7D521B",
"2  c #6D4618",
"3  c #434026",
"4  c #4C4627",
"5  c #444228",
"6  c #4B4529",
"7  c #4F482B",
"8  c #544B2A",
"9  c #5A4E2D",
"0  c #574726",
"q  c #5E512B",
"w  c #5D4F30",
"e  c #654527",
"r  c #764828",
"t  c #63542B",
"y  c #6C5A2B",
"u  c #685427",
"i  c #725E2C",
"p  c #7E552A",
"a  c #645331",
"s  c #6A5633",
"d  c #6E5834",
"f  c #745C36",
"g  c #785D35",
"h  c #7A5934",
"j  c #6E4E30",
"k  c #6C6D2F",
"l  c #75602D",
"z  c #7C642E",
"x  c #7D6139",
"c  c #796B35",
"v  c #697C3A",
"b  c #717639",
"n  c #543E4D",
"m  c #7C5241",
"M  c #6D5772",
"N  c #8A1A14",
"B  c #961A1A",
"V  c #9B1A1B",
"C  c #921D17",
"Z  c #A31F1F",
"A  c #AE1609",
"S  c #872517",
"D  c #96211D",
"F  c #87391A",
"G  c #893612",
"H  c #B4240D",
"J  c #AB380E",
"K  c #AE3114",
"L  c #9B1F20",
"P  c #A41F20",
"I  c #9A2C23",
"U  c #883A27",
"Y  c #933224",
"T  c #AD2223",
"R  c #A82E24",
"E  c #B32425",
"W  c #B22A26",
"Q  c #A53627",
"!  c #B83C2C",
"~  c #C40500",
"^  c #C81503",
"/  c #D42804",
"(  c #864B14",
")  c #8D541C",
"_  c #954E1A",
"`  c #AF5018",
"'  c #AE6718",
"]  c #9B4528",
"[  c #87592B",
"{  c #92522C",
"}  c #A9462C",
"|  c #AB552D",
" . c #A95835",
".. c #B85834",
"X. c #BE4B2E",
"o. c #80672E",
"O. c #84692F",
"+. c #8B6D2F",
"@. c #886429",
"#. c #976828",
"$. c #97752D",
"%. c #8C6F30",
"&. c #83643B",
"*. c #8D693E",
"=. c #8A6733",
"-. c #916C3F",
";. c #986936",
":. c #8F7130",
">. c #8C733B",
",. c #937331",
"<. c #997731",
"1. c #9D7932",
"2. c #9B7C3E",
"3. c #A67129",
"4. c #A86839",
"5. c #BA6E39",
"6. c #B46D37",
"7. c #A37D33",
"8. c #A77839",
"9. c #B06D2F",
"0. c #D24D10",
"q. c #D86E18",
"w. c #E56E11",
"e. c #C15936",
"r. c #C15736",
"t. c #CD5C30",
"y. c #C8743F",
"u. c #C5733D",
"i. c #C86039",
"p. c #E87D21",
"a. c #956E40",
"s. c #986F41",
"d. c #9C7243",
"f. c #957444",
"g. c #887345",
"h. c #A27644",
"j. c #A57946",
"k. c #AA7A47",
"l. c #AD7D48",
"z. c #B27F49",
"x. c #B87A43",
"c. c #AD744E",
"v. c #986C7B",
"b. c #CD7448",
"n. c #67843F",
"m. c #69853F",
"M. c #6F883E",
"N. c #71863D",
"B. c #73893D",
"V. c #7D8C3B",
"C. c #678440",
"Z. c #6B8540",
"A. c #738541",
"S. c #7B8542",
"D. c #758C42",
"F. c #8B8F36",
"G. c #828E3A",
"H. c #87893A",
"J. c #8C9137",
"K. c #8B9138",
"L. c #879039",
"P. c #949436",
"I. c #9A9634",
"U. c #9D9834",
"Y. c #9B8933",
"T. c #A0822C",
"R. c #B69F2E",
"E. c #A78033",
"W. c #A98839",
"Q. c #A59B33",
"!. c #AC9D31",
"~. c #A39732",
"^. c #B09F31",
"/. c #B38D2F",
"(. c #BBA22E",
"). c #B5A02F",
"_. c #C5A62C",
"`. c #C9A72B",
"'. c #CDA92A",
"]. c #C7A027",
"[. c #D1AB2A",
"{. c #ED9D25",
"}. c #F3CB2A",
"|. c #FBF12F",
" X c #848644",
".X c #8B8645",
"XX c #8B8846",
"oX c #938646",
"OX c #9A8647",
"+X c #9D8748",
"@X c #988847",
"#X c #92984F",
"$X c #A38649",
"%X c #AC854A",
"&X c #A4884A",
"*X c #AD884B",
"=X c #A58344",
"-X c #B3844B",
";X c #BB854D",
":X c #B4884C",
">X c #BC884E",
",X c #B78844",
"<X c #A89A49",
"1X c #BB8C52",
"2X c #B59253",
"3X c #B8AA51",
"4X c #919665",
"5X c #C1874E",
"6X c #C3884F",
"7X c #CB8444",
"8X c #C98B53",
"9X c #F58E5F",
"0X c #CBB25A",
"qX c #C89169",
"wX c #D2A769",
"eX c #EFAC73",
"rX c #ECBA7B",
"tX c #EDB270",
"yX c #EEB041",
"uX c #E8C65E",
"iX c #E5D45F",
"pX c #F9E64D",
"aX c #E7C76C",
"sX c #E6D768",
"dX c #EEDD70",
"fX c #E1D266",
"gX c #877BA1",
"hX c #817299",
"jX c #A59A80",
"kX c #A6A1BF",
"lX c #A49EA7",
"zX c #F2BF81",
"xX c #F6C282",
"cX c #AEACC7",
/* pixels */
"y 3 t l 5 3 3 4 f z.:X5Xa.9 % 3 3 y y 3 t o.3 7 o.0 3 3 3 a d.-X>Xk.s 3 % 3 t z 4 8 O.8 4 l t 5 5 5 8 g.z.-X;Xx 6 % % 6 z t % y ",
"o.4 3 3 % 3 4 s.;XoXA.@X5Xh.6 % % 3 3 4 i :.9 3 3 3 3 3 x ;X&XS..X;X-Xa % % % 3 3 t ,.t 3 3 % %   9 k.z. XS.%X>X&.5 % % 3 % 4 o.",
"7.i 3 3 3   a ;X*XZ.n.A.-X5Xs   % % % 9 <.7.O.3 3 3   4 j.;XS.n.C.+X6X*.3 % % % 4 ,.E.,.4 3 3 % 3 &.6Xf.n.n. X6Xk.7 % % % % i 7.",
"o.4 3 3 8 x l.:X.XC.Z.Z..X*Xl.&.9 % % 6 i +.9 % 3 5 f d.-XoXZ.n.n.S.*X-X-.a 3 3 % y ,.t 3 3 3 t *.-X*XA.v n.Z.oX:Xh.f 5 % 5 4 o.",
"5 3 5 5 -.6XoXZ.n.m.n.n.m.Z.+X6Xs.% % % % 4 5 %   y ;X*XA.m.n.C.m.m.n..X>Xz.8 % 3 3 4 3 % % 7 z.>X XZ.n.v C.m.m.A.*X;Xf % % % 5 ",
"3 3 % w z.;XA.n.n.m.P.V.C.n.S.>X-Xa % 5 % % % % 7 d.6XXXm.m.C.L.L.m.n.Z.*X5X&.5 % % 3 3 % 6 g 5X&XZ.m.m.V.P.m.m.m.oX5Xh.8 % % 5 ",
"5 8 *.%X$X Xm.m.m.I.'.(.V.n.m..X%X-Xa.9 % 5 6 g k.%X.Xm.n.n.K.`.`.K.C.n.S.OX-Xh.s % 3 % s h.-XoXD.n.m.B.R.'.I.m.m.A.oX*Xk.&.6 5 ",
"  x 6X+XZ.n.n.C.m.I.`.(.V.n.m.n.Z.$X6X&.  % 9 ;X:XA.n.n.m.n.K.`.`.H.n.C.n.n..X5Xj.6 % 5 h.5X.XC.n.n.n.B.R.'.U.m.n.n.n.S.-X;Xw   ",
"a l.>XS.n.Z.M.L.m.M.Q.K.C.V.V.C.n. X>Xl.t 9 a.5XoXn.m.m.V.B.C.I.P.n.B.V.m.n.A.:X;Xx 8 x ;X%XZ.C.n.V.V.v G.!.m.m.G.m.m.Z.@X6Xs.9 ",
";X*X Xm.n.n.I.`.U.K._.!.L.(.(.V.n.m.S.$Xz.-X;X.XA.n.m.K.(.!.L.(.(.L.^.`.J.m.m.A..X;X-X;X+XA.C.C.V.(.(.G.!._.P.I.`.I.m.m.A. X%X;X",
"-X%XA.n.n.B.).[.(.!.[._.Q.'.'.P.m.m.m.OXl.k.-XS.n.n.n.Q.[._.Q.'.'.!._.'.Q.m.n.n..X-Xl.-X.Xn.n.C.P.'.`.~.].`.!.(.[.(.B.n.n.A.%Xl.",
"9 j.XXn.n.n.V.!.V.B.!.P.M.I.I.m.n.n. Xk.9 6 *.%XZ.m.C.V.Q.J.m.Q.U.M.J.Q.B.n.n.A.%Xf 6 d l.A.n.C.m.U.I.m.F.!.B.V.!.V.n.n.Z.$X-.7 ",
"% x :XXXZ.m.Z.m.n.V.(.U.Z.C.Z.C.Z. X*X&.% % u t.' #.b m.Z.n.B.^.^.B.Z.m.n.m.S.+Xj.6 % 4 d.$X XZ.n.m.m.M.I.(.V.n.m.n.n.A..X-Xa   ",
"% 4 &.j.$XZ.n.m.m.!.[.`.L.C.n.Z.OXj.| e 4 G H ^ ^ r.V.b v n.I.'.'.I.n.n.m. X%Xa.a % 3 % a *.l..Xn.m.C.G._.[.!.m.m.m.A.%Xd.f 3   ",
"% %   8 l. Xn.n.m.V.(.U.m.n.n.D.%X9 X * @ / ^ A >  .d.o.c n.B.!.!.B.n.C.Z.%Xx 3 %   % % % % f %XA.n.n.Z.I.).V.n.n.m.oXd.6   3 % ",
"8 % % % *.:XoXN.n.m.B.m.m.Z.oX*X*.  - & @ ^ / G & ) z.=XS.Z.C.M.M.n.m. X&X=X8   % 6 9 3 % 5 8 j.&X XZ.Z.m.B.n.n.S.+X-Xd   3 % 8 ",
"%.9 % % 4 d h.+XZ.m.C.Z.C.oXj.d 6 % 3 0 [ ` w.0.H + a { 6.A.C.Z.m.n.S.l.z q % % 3 l 1.l 3 % % 9 x %X Xm.C.C.C.A.%Xa.a 5 3 3 9 %.",
"7.y % % % % w -XS.Z.n.n.A.%Xa   % % ; F 3.3.0.w.0.#   & d.XXZ.Z.n.m.+X;.3 % % % u ,.E.%.4 % % % 3 &.&XA.v Z.C. Xj.7 5 3 3 3 y 7.",
"i 3 3 4 5 3 6 -.z.$XN.S.$Xa.6 % % 4 G F r J A w.w.N = % l.wXqXS.A.&XW.#.5 3 % 0 z u +.9 3 4 3 % % 9 j.%X XZ.oX%Xx 3     4 5 3 l ",
"z 8 l ,.9 % % 5 w h.$X%X&.6   % 7 O.` H A ^ / p.}.` S g.zXeXtX:X+Xs.q , 4 4 k T.1 < :.t 9 :.z 3 % % 4 f l.@Xl.s 5   3 9 ,.l 7 z ",
"7.O.7.7.o.3 3 3   d -Xh.6 % % % i 7.3.H ~ ^ {.|.|.9.> f.zX9X9Xb.>Xc % , 1 u T.' ( $.T.$.+.7.7.q % % % 5 a.;Xm 5 3 3 5 o.E.1.O.E.",
"o.8 i %.8 3 % 3 6 -.;X-Xa 3 % % 6 O.=.H ~ 0.}.|.}.5.# h.zXzXzXqX7X@X& + ( ( #.( X u $.t 9 ,.i 3 5 % % 9 j.;Xh.7 3 3 3 8 +.l 7 z ",
"i 3 4 4 % % 3 g j.*XS.oXz.&.6 % % 4 7 ; ~ p.|.pXyXt. . .b.zXwX .>XW.:.0 2 ' ` 2 & u $.8 % 4 % % % 7 *.k.oXA.&Xl.s   3   4 4 4 l ",
"7.y % % % % 8 -X*XA.n.Z.-X;X9 % % % 5 e H w.aXaXb.A h d.c.c. . .+Xo.' #., / H ( ) ) #.+.4 % % %   f 5XoXv C.S.5Xh.5 3       y 1.",
",.9 % 3 3 8 *.*XS.n.n.m.S.*X-.8 % % % 4 F 0.yXtXt.N $ * e - - : 9 u , ) ( J J , ( , #.i 4 % % 6 a j.+Xm.n.n.m.XX%Xz 4 5 % 5 9 :.",
"7 % 3 % f -X%XS.n.m.n.Z.n.A.&X-X&.% % % & ` q.e.e.. $ $ $ $   $ - h b >.;.( ( X 4 * q % % % 6 a.z.+Xm.n.v Z.m.n. X-Xk.a % %   8 ",
"% % % 4 l.*XA.n.m.m.V.N.n.n.D.:Xk.6   % % 4 ;.} 5X} B V . $ $ $ : { C.C.2.( + & % % % 5 %   t ;X+Xn.n.n.m.V.m.n.n..X;X*.% % % % ",
"% 3 t -.*XS.n.m.n.J._.!.B.n.m.S.%Xa.a 6 % 3 o.(  .! V V I U e ; ,X;.C.C.#X>X-X&.8 % % % 4 f h.OXN.n.n.M.!._.K.Z.n.m..X%X&.9 3 % ",
"% d ;X%XS.n.Z.n.m.Q.'.`.G.C.C.n.A.&X;Xf % % r ] R Z D B V e.6.Q 7X} l.=.wXzXzXwXs.3 % % -.5XoXm.n.m.n.G.(.[.Q.m.C.n.C. X-Xz.9   ",
"6 d.:XA.C.C.Z.B.C.V.^.P.C.M.M.C.C.S.:Xh.6 % j } C U h S V ..u.X.7X! 5.F ;.1X1X1X-Xw % 9 z.$XZ.n.n.N.m.C.F.!.N.Z.B.m.n.n.oX-Xg 5 ",
"d.*XS.C.n.m.K.(.K.V.).U.V.!.!.B.C.n.A.$Xd.-.%X-.[ b n.[ V ..u.! 7XR ' S r r p v oXj.*.k.+XZ.Z.C.B.!.!.B.P.R.V.J.(.J.m.n.Z. X%Xa.",
"z.%XA.Z.C.B.(.[.(.).[.`.!.'.'.I.Z.C.Z.+Xl.c.-XS.n.n.m.7.K } u.X.7X| /./.T.< < C..X;Xk.-XoXm.C.C.I.'.[.^.].[.)._.[.(.B.C.Z.A.-Xz.",
"9 j..Xn.n.n.J.R.J.V.(.U.B.!.!.B.Z.C. Xj.9 6 *.&XZ.C.Z. XQ P b.c.qXg.I.).V.< < N.%Xf 6 d *XA.n.C.B.!.!.B.Y.(.V.J.(.K.m.n.m.&X*.8 ",
"  g -X.Xm.m.m.N.n.B.^.K.Z.N.N.C.Z. X*X&.%   9 :X@XD.C.Z.e S hXkXcX4Xm.B.n.< 1 Y.j.4   3 d.%X XZ.n.N.B.Z.F.^.B.m.V.m.n.A.oX-Xq   ",
"% 6 x k.$XZ.n.n.m.Q.[.`.G.n.C.C.@Xj.x 8 5 % 5 y s.%XD.#Xx $ M kXcXlX#Xm.v , ( a.q 3 3 3 q *.%X.Xm.C.C.V._.[.Q.n.C.n.A.*Xd.f 5 5 ",
"% % % 9 k..XC.C.m.J.`.!.B.n.C.S.k.9 % 5 % % % % 5 s.3XfXwX; = hXgXjX3XB.n.1 @ % 3 3 3 3 3 3 f %XA.n.n.A.Q.`.J.n.n.C.oXd.6   3 3 ",
"% % % % *.:X@XA.m.C.V.V.C.Z.@X:Xa.5 % 5 3 5 3 3 5 @XaXiXaXQ . n n m W.<X%X) @ 3 3 3 5 3 3   7 j.&XXXn.n.N.V.n.n.A.&X-Xd   3 3 3 ",
"i 6 % % 4 d h.+Xm.Z.C.C.n.oXh.d 7   % % q z 4 % 5  XfXsXaXQ { e *  .8.0X&.o + % 3 8 o.8 3 3 3 9 x %X Xn.v n.n.A.*X-.t 5 3 3 5 y ",
"7.u % 5 %   q -X Xn.n.n.A.%Xa   5 % % q <.E.c 5 7 <XsXdXsXQ 5.....u. .P.u + + % 4 ,.E.:.4 3 3   % &.%XZ.n.C.n..Xk.4   3 3   y 7.",
":.9 % % % % 6 -.%X&XZ.S.%Xd.6 %   % % 6 z <.y 5 7 3XdXsXtXQ 5.r.e.u.R ^.W.o X % 5 l 1.l 5 3   3 % 9 j.%X XZ.OX-Xx 3 3 3 3 3 9 %.",
"y 5 8 y 5 3 3 5 9 j.$X%Xg 6 % 5 % t q 3 q z 5 4 OXfXdXtXb.D 5.r...y.R Q.E.+ 0 y 3 7 O.7 3 u q 3 5 % 6 d %X+Xl.a 3 3 3 3 y 9 % u ",
"<.i :.7.l 3 3 3   d ;Xj.6 % % % t 2.1.l :.1.z O.W.0X8Xr.W V 5.r.e.b.W [ 2 O #.T.z O.T.O.l 7.:.8 % % % 5 a.>X&.% 3 3 3 l 7.,.l 1.",
"<.i ,.7.l 3 3 3 6 *.5X-Xs % % % q <.<.l +.E.z O.7. .W E E V 5.r.r.x.T S X o :.1.z O.7.+.z 7.,.8 % % % 9 k.5Xd.8 5 3 3 l E.,.y 1.",
"y   9 u 5     x h.-X+X-Xz.&.6 % 3 q t 3 q z 5 4 f Y E E T V 5.r.r.x.T S @ o t y 3 4 +.7 3 u 9 % 5 6 *.k.$X$X;Xh.a 3 3 3 y 8 5 u ",
":.q % % 3   9 -X:XS.m. X;X;X9 % 3 3 3 7 O.<.t   % I E E W V 5.e.r.5.B B G o & % 3 l 1.l 3 3 % %   f 5X&Xn.n.oX6Xd.3   3   3 8 :.",
"7.u 3 3 3 8 *.;X+Xm.n.n.$X5X*.8 3 3   q <.E.z 3 ; I P E T V 5.e.! u.Q B O + &   4 :.E.:.4 3 % 4 a j.>X.Xn.n.S.;X;Xx 7   3   y E.",
"y 5 3 % f -X-X.XA.n.n.n.A..X:X-Xx 3 3 3 t z 7 3 : P B T E V 5.e.T u.} N O O * 5 3 9 o.9 3 % 4 -.;X&X XC.n.n.m.S.oX;Xj.a   3 5 l ",
"3 3   4 k.6XS.n.m.m.m.m.m.n. X>Xl.7   3 3 3 3 3 : V B P T B 5.e.E u...N O ( e   % 3 3 3 3 3 t ;X%XZ.v C.n.m.n.n.n.&X6Xa.3   5   ",
"3 5 t a.:X&Xm.m.m.B.Q.J.m.n.A.&X:Xa.a 6 % % % 9 U Z B V B B 5.e.E y.| C O 3.k.f 4 % % 5 4 d k.:XXXC.C.Z.G.Q.B.n.n. X:X-X&.9 % % ",
"  d ;X%X XZ.m.m.m.Q.'.`.G.n.Z.M. X:X;Xf % % 7 l.c.Y B D B B 5.e.E y.| S O c $X6Xa.5 % 5 a.;X$XA.C.C.C.S.].[.Q.M.n.n.A.oX>Xl.8   ",
"6 a.>XXXn.n.m.n.m.J._.^.B.C.n.n.C.oX6Xd.6   f 5X$Xb { r Y D 8.6.W 6.H.: O k S.:X;Xw   9 z.-XA.n.Z.C.C.A.!._.J.n.n.m.n.Z.*X6Xx 3 ",
"d.-X$XA.n.n.B.P.B.m.!.L.C.K.K.n.C.A.&X;Xs.a.-X-X XZ.v m.#.=.v P.3.>.V.$., k M.oX:Xk.*.j.;X@XZ.m.Z.K.L.C.G.!.m.B.P.B.m.n. X*X-X-.",
"6X$XZ.C.n.M.^.'.^.U.'.(.I.`.`.L.C.C.Z.oX>X6X:XA.C.m.m.U.'.(.I.`.].P.R.].T.v n.m.S.;X6X6X.Xm.Z.n.K.`.`.P.R.'.U.^.[.!.Z.Z.n.m.%X6X",
"*.z. XC.m.M.!.'.^.U.'.(.I._.`.K.C.C.A.%X*.g k.oXn.Z.m.I.'.(.I.`._.P.R.'.I.m.n.m.$Xd.f d.$XA.C.C.L.`.`.P.R.'.Q.!.'.!.N.C.n.oXl.x ",
"% a.$XA.n.n.B.P.B.m.Q.K.C.K.L.C.C.Z.@Xs.% % d :XA.m.n.m.P.V.n.I.I.n.G.P.m.m.Z. Xl.8   7 k..Xn.n.C.K.K.C.H.Q.Z.B.P.B.n.v N.*Xf % ",
"% a l.%X.XZ.n.n.m.K._.^.B.C.C.n. X*Xl.d % % 7 d.:XOXZ.m.Z.n.V.(.(.V.C.n.C.A.$X%X*.5 3 3 &.-X$XS.n.n.C.B.!.`.K.n.C.Z.m.oX-Xh.7 % ",
"3 3 9 x -XS.C.n.m.Q.[.`.L.n.C.Z.%X&.8 3   3 3 6 d k.XXZ.m.n.P.'.'.P.n.m.n.@Xd.9 5 3 3 3 5 q a.$XZ.Z.Z.V.].[.Q.m.m.n. Xl.d 4 5 % ",
"3     3 h.$XA.Z.m.B.Q.K.n.n.A.@Xj.4   3   3 5     &.%XS.Z.m.m.I.I.m.m.Z.XX-Xa %   5 3   5   9 -XXXZ.C.v L.Q.B.n.Z.S.*X&.% % 5 % ",
"q 3 3 3 s d.-X.Xm.n.m.m.m.S.*Xj.d 3 3   8 u 5 3 % 8 a.z.@XZ.C.m.m.m.A.$Xl.&.6 % % 6 l 4   3 5 &.k.$XA.n.n.m.Z.Z.oX:Xd.9 % % % q ",
"1.t   3 3 6 g *XB.n.n.n.m.*X&.5   3 3 8 +.7.l 3 % % % t -X Xn.m.m.m.oXh.8 % % % 6 o.T.O.5 3 3 3 4 d.oXn.n.n.C.S.-Xa 3 % 3 % t 1.",
"<.t   3 3 3 8 l.$X Xm.Z.oX%X8 % 3   3 8 :.7.l 5 % 3 3 3 a.%XXXZ.n. X:Xf   % 5   4 O.1.O.4 3 % % % d -XoXA.C.S.$Xf.3 3   % 3 t 1.",
"u 3 4 q 3 3 3 a -.-X.X+Xl.d 3 % 3 8 8   q o.3 5 9 5 3 3 8 &.c.OX.X-X&.6 % % 4 9   8 O.8   9 4 5 % 6 f d.$X X%Xd.q 3 3 5 9 4   u ",
":.q O.1.t 3 3   3 &.;Xl.9 % % 3 9 ,.,.t z 1.u l 7.l 3 3 % % t -X-Xg 3 3 3 4 O.1.u l 1.l s <.O.4 % 5 % 8 h.:Xs.5   5 3 u 1.O.t :.",
"E.O.1.E.o.3 3 3   f 5Xj.4 % 3 % y 1.7.O.1.7.:.,.7.,.4 3 % % 8 -X;Xa   3 3 q 1.7.%.,.E.$.+.E.1.q % % % 5 a.5Xx   3 % 5 o.E.1.O.7."
};
